<svg width="64" height="64" viewBox="0 0 64 64" fill="none" xmlns="http://www.w3.org/2000/svg">
<path d="M34.8204 52.7301H14.6904V22.1801C14.6917 22.0019 14.7406 21.8273 14.832 21.6743C14.9235 21.5214 15.0541 21.3956 15.2104 21.3101L33.3404 11.4001C33.4929 11.3166 33.6645 11.2744 33.8383 11.2775C34.0121 11.2806 34.1821 11.329 34.3315 11.4178C34.4809 11.5066 34.6046 11.6329 34.6903 11.7841C34.7761 11.9353 34.8209 12.1063 34.8204 12.2801V52.7301Z" stroke="#D4AE5F" stroke-width="3" stroke-linecap="round"/>
<path d="M48.8699 52.7298H34.9199V21.5898L48.3999 29.2998C48.544 29.3899 48.6628 29.5152 48.7451 29.6639C48.8273 29.8127 48.8703 29.9799 48.8699 30.1498V52.7298Z" stroke="#D4AE5F" stroke-width="3" stroke-linecap="round"/>
<path d="M28.0996 24.8604H21.0596" stroke="#D4AE5F" stroke-width="3" stroke-linecap="round"/>
<path d="M43.6596 32.4102H40.1396" stroke="#D4AE5F" stroke-width="3" stroke-linecap="round"/>
<path d="M43.6596 36.9004H40.1396" stroke="#D4AE5F" stroke-width="3" stroke-linecap="round"/>
<path d="M43.6596 41.71H40.1396" stroke="#D4AE5F" stroke-width="3" stroke-linecap="round"/>
<path d="M43.6596 46.1904H40.1396" stroke="#D4AE5F" stroke-width="3" stroke-linecap="round"/>
<path d="M28.0996 30.4404H21.0596" stroke="#D4AE5F" stroke-width="3" stroke-linecap="round"/>
<path d="M28.0996 35.9404H21.0596" stroke="#D4AE5F" stroke-width="3" stroke-linecap="round"/>
<path d="M28.0996 41.4404H21.0596" stroke="#D4AE5F" stroke-width="3" stroke-linecap="round"/>
<path d="M28.0996 46.9404H21.0596" stroke="#D4AE5F" stroke-width="3" stroke-linecap="round"/>
<path d="M9.45996 52.7305H54.54" stroke="#D4AE5F" stroke-width="3" stroke-linecap="round"/>
</svg>
