<svg width="64" height="65" viewBox="0 0 64 65" fill="none" xmlns="http://www.w3.org/2000/svg">
<path d="M11.1092 9.07967C10.7589 9.09105 10.4144 9.17259 10.0962 9.31949C9.77795 9.46638 9.49243 9.67563 9.25652 9.93485C9.02061 10.1941 8.83911 10.498 8.72277 10.8286C8.60643 11.1592 8.5576 11.5098 8.57919 11.8597C8.92919 17.8597 10.5792 32.4997 18.4792 41.6297C27.9392 52.6297 40.2592 56.4197 52.8992 55.8597C53.5767 55.8192 54.2137 55.5231 54.6814 55.0313C55.1491 54.5394 55.4128 53.8884 55.4192 53.2097V43.5997C55.4113 42.703 55.1024 41.8351 54.542 41.1351C53.9817 40.4351 53.2024 39.9436 52.3292 39.7397L45.9992 38.3397C45.2163 38.1728 44.4013 38.2446 43.6597 38.5459C42.9181 38.8472 42.2839 39.3641 41.8392 40.0297L40.4392 42.1497C40.3107 42.3437 40.1185 42.4868 39.8958 42.5543C39.6731 42.6218 39.4338 42.6096 39.2192 42.5197C35.9992 41.1297 23.1692 35.1297 21.7592 25.0097C21.7316 24.8142 21.7624 24.615 21.8478 24.437C21.9332 24.2591 22.0694 24.1104 22.2392 24.0097L24.7792 22.4597C25.4759 22.0279 26.0231 21.3925 26.3468 20.6396C26.6706 19.8866 26.7552 19.0523 26.5892 18.2497L25.1992 11.8097C24.996 10.9073 24.4864 10.1033 23.7571 9.53447C23.0277 8.96561 22.1238 8.66707 21.1992 8.68967L11.1092 9.07967Z" stroke="#D4AE5F" stroke-width="3"/>
<path d="M48.7491 26.5701L37.1191 26.2501L37.4291 14.6201" stroke="#D4AE5F" stroke-width="3"/>
<path d="M37.1094 26.2496L53.3394 10.8896" stroke="#D4AE5F" stroke-width="3"/>
</svg>
