<svg width="64" height="65" viewBox="0 0 64 65" fill="none" xmlns="http://www.w3.org/2000/svg">
<path d="M21.6799 42.8993H37.1699C37.6155 42.8993 38.0428 42.7223 38.3579 42.4072C38.6729 42.0921 38.8499 41.6648 38.8499 41.2193L44.6999 19.7993C44.6999 19.5769 44.6558 19.3568 44.5702 19.1517C44.4845 18.9466 44.3589 18.7605 44.2008 18.6042C44.0427 18.4479 43.8551 18.3246 43.649 18.2414C43.4428 18.1581 43.2222 18.1166 42.9999 18.1193H17.6099C17.1634 18.1193 16.7351 18.2959 16.4184 18.6107C16.1018 18.9255 15.9226 19.3528 15.9199 19.7993L10.9199 41.2193C10.9199 41.6648 11.0969 42.0921 11.412 42.4072C11.727 42.7223 12.1544 42.8993 12.5999 42.8993H14.7799" stroke="#D4AE5F" stroke-width="3"/>
<path d="M41.6595 42.8994H38.1895L43.1895 25.6094H51.4095C51.5331 25.6091 51.6553 25.6358 51.7676 25.6876C51.8798 25.7394 51.9795 25.8151 52.0595 25.9094L55.6395 32.2094C55.7677 32.3562 55.8388 32.5444 55.8395 32.7394L52.5095 42.8994H48.9095" stroke="#D4AE5F" stroke-width="3"/>
<path d="M18.3096 47.7495C20.3586 47.7495 22.0196 46.0661 22.0196 43.9895C22.0196 41.9129 20.3586 40.2295 18.3096 40.2295C16.2606 40.2295 14.5996 41.9129 14.5996 43.9895C14.5996 46.0661 16.2606 47.7495 18.3096 47.7495Z" stroke="#D4AE5F" stroke-width="3"/>
<path d="M45.3506 47.7495C47.3996 47.7495 49.0606 46.0661 49.0606 43.9895C49.0606 41.9129 47.3996 40.2295 45.3506 40.2295C43.3016 40.2295 41.6406 41.9129 41.6406 43.9895C41.6406 46.0661 43.3016 47.7495 45.3506 47.7495Z" stroke="#D4AE5F" stroke-width="3"/>
<path d="M23.2491 23.04H6.86914" stroke="#D4AE5F" stroke-width="3" stroke-linecap="round"/>
<path d="M20.0192 28.2793H8.44922" stroke="#D4AE5F" stroke-width="3" stroke-linecap="round"/>
<path d="M21.1909 34.1797H3.21094" stroke="#D4AE5F" stroke-width="3" stroke-linecap="round"/>
</svg>
