<svg width="33" height="32" viewBox="0 0 33 32" fill="none" xmlns="http://www.w3.org/2000/svg">
<path d="M19.245 9.9302C19.245 9.8952 19.425 9.7802 20 9.7802H21.88C22.0268 9.7822 22.1725 9.75492 22.3086 9.69997C22.4448 9.64502 22.5686 9.56349 22.6729 9.46015C22.7771 9.35681 22.8598 9.23373 22.9159 9.0981C22.9721 8.96247 23.0007 8.817 23 8.6702V5.3902C23.0026 5.24401 22.9764 5.09874 22.9227 4.96273C22.8691 4.82672 22.7891 4.70266 22.6873 4.59766C22.5856 4.49266 22.4641 4.40879 22.3298 4.35088C22.1956 4.29297 22.0512 4.26215 21.905 4.2602H19.105C18.3279 4.23357 17.5536 4.36522 16.829 4.64715C16.1044 4.92908 15.4447 5.3554 14.89 5.9002C14.3527 6.47975 13.9353 7.15973 13.6615 7.90109C13.3878 8.64244 13.2633 9.43057 13.295 10.2202V13.1952H11.12C10.9736 13.1945 10.8285 13.2227 10.6929 13.2782C10.5574 13.3336 10.4341 13.4152 10.3301 13.5182C10.2261 13.6213 10.1434 13.7439 10.0868 13.8789C10.0301 14.0139 10.0007 14.1588 10 14.3052V17.8402C10 18.1333 10.1164 18.4143 10.3236 18.6216C10.5309 18.8288 10.8119 18.9452 11.105 18.9452H13.245V26.6202C13.241 26.9137 13.3534 27.1969 13.5577 27.4078C13.762 27.6186 14.0415 27.7399 14.335 27.7452H18.01C18.1555 27.7452 18.2996 27.7165 18.434 27.6606C18.5684 27.6048 18.6905 27.5229 18.7931 27.4198C18.8958 27.3167 18.9771 27.1942 19.0323 27.0596C19.0876 26.925 19.1157 26.7807 19.115 26.6352V18.9702H21.73C22.024 18.9689 22.3056 18.8515 22.5134 18.6436C22.7213 18.4358 22.8387 18.1542 22.84 17.8602V14.3202C22.84 14.1747 22.8113 14.0306 22.7554 13.8962C22.6996 13.7618 22.6177 13.6397 22.5146 13.5371C22.4114 13.4344 22.289 13.3531 22.1544 13.2979C22.0198 13.2426 21.8755 13.2145 21.73 13.2152H19.13V10.6102C19.1021 10.3772 19.1421 10.1411 19.245 9.9302Z" stroke="white" stroke-width="1.5" stroke-linecap="round"/>
</svg>
