<svg width="37" height="36" viewBox="0 0 37 36" fill="none" xmlns="http://www.w3.org/2000/svg">
<path d="M22.8146 7.32422H14.1858C10.9146 7.32422 8.2627 9.97609 8.2627 13.2473V22.7592C8.2627 26.0305 10.9146 28.6823 14.1858 28.6823H22.8146C26.0858 28.6823 28.7377 26.0305 28.7377 22.7592V13.2473C28.7377 9.97609 26.0858 7.32422 22.8146 7.32422Z" stroke="white" stroke-width="1.5" stroke-linecap="round"/>
<path d="M18.5003 23.2203C21.3832 23.2203 23.7203 20.8832 23.7203 18.0003C23.7203 15.1173 21.3832 12.7803 18.5003 12.7803C15.6173 12.7803 13.2803 15.1173 13.2803 18.0003C13.2803 20.8832 15.6173 23.2203 18.5003 23.2203Z" stroke="white" stroke-width="1.5" stroke-linecap="round"/>
<path d="M24.7493 11.8463C25.1594 11.8463 25.4918 11.5139 25.4918 11.1038C25.4918 10.6938 25.1594 10.3613 24.7493 10.3613C24.3393 10.3613 24.0068 10.6938 24.0068 11.1038C24.0068 11.5139 24.3393 11.8463 24.7493 11.8463Z" stroke="white" stroke-width="1.5"/>
</svg>
