<svg width="64" height="65" viewBox="0 0 64 65" fill="none" xmlns="http://www.w3.org/2000/svg">
<path d="M50.4004 25.0593L58.3004 23.8193" stroke="#D4AE5F" stroke-width="3"/>
<path d="M47.9297 17.7899L52.8697 14.8799" stroke="#D4AE5F" stroke-width="3"/>
<path d="M42.8906 12.4095L46.2106 5.18945" stroke="#D4AE5F" stroke-width="3"/>
<path d="M33.4502 11.3696L33.4102 5.63965" stroke="#D4AE5F" stroke-width="3"/>
<path d="M24.2891 12.7695L21.6191 5.18945" stroke="#D4AE5F" stroke-width="3"/>
<path d="M17.9909 17.7097L12.9609 14.9697" stroke="#D4AE5F" stroke-width="3"/>
<path d="M15.7793 24.6498L8.0293 23.3398" stroke="#D4AE5F" stroke-width="3"/>
<path d="M26.2196 46.1499C26.2196 40.9899 23.0296 36.6599 21.3096 33.4599C20.354 31.683 19.8525 29.6974 19.8496 27.6799C19.8496 20.8899 26.0596 15.3799 32.8496 15.3799" stroke="#D4AE5F" stroke-width="3"/>
<path d="M39.4796 46.1499C39.4796 40.9899 42.6696 36.6599 44.3896 33.4599C45.3452 31.683 45.8467 29.6974 45.8496 27.6799C45.8496 20.8899 39.6396 15.3799 32.8496 15.3799" stroke="#D4AE5F" stroke-width="3"/>
<path d="M40.4409 45.8701H25.7509C24.58 45.8701 23.6309 46.8193 23.6309 47.9901V48.0001C23.6309 49.171 24.58 50.1201 25.7509 50.1201H40.4409C41.6117 50.1201 42.5609 49.171 42.5609 48.0001V47.9901C42.5609 46.8193 41.6117 45.8701 40.4409 45.8701Z" stroke="#D4AE5F" stroke-width="3"/>
<path d="M39.2791 50.1094H26.9091C25.7382 50.1094 24.7891 51.0585 24.7891 52.2294V52.2394C24.7891 53.4102 25.7382 54.3594 26.9091 54.3594H39.2791C40.4499 54.3594 41.3991 53.4102 41.3991 52.2394V52.2294C41.3991 51.0585 40.4499 50.1094 39.2791 50.1094Z" stroke="#D4AE5F" stroke-width="3"/>
<path d="M36.3191 54.3594V55.1994C36.3542 55.6436 36.2969 56.0902 36.151 56.5112C36.0051 56.9322 35.7736 57.3184 35.4712 57.6457C35.1688 57.9729 34.8019 58.234 34.3937 58.4126C33.9855 58.5912 33.5447 58.6833 33.0991 58.6833C32.6536 58.6833 32.2128 58.5912 31.8046 58.4126C31.3964 58.234 31.0295 57.9729 30.7271 57.6457C30.4247 57.3184 30.1932 56.9322 30.0473 56.5112C29.9014 56.0902 29.8441 55.6436 29.8791 55.1994V54.3594" stroke="#D4AE5F" stroke-width="3"/>
<path d="M24.5703 26.9297C24.6202 25.9452 24.8637 24.9803 25.2869 24.09C25.7101 23.1997 26.3046 22.4015 27.0364 21.7412C27.7683 21.0808 28.6231 20.5713 29.5521 20.2415C30.4811 19.9118 31.4659 19.7685 32.4503 19.8197" stroke="#D4AE5F" stroke-width="3"/>
</svg>
