<svg width="64" height="64" viewBox="0 0 64 64" fill="none" xmlns="http://www.w3.org/2000/svg">
<g id="OB 2" clip-path="url(#clip0_361_1089)">
<path id="Vector" d="M70.4001 -6.40039H-6.3999V70.3996H70.4001V-6.40039Z" fill="#F5F5F5"/>
<path id="Vector_2" d="M70.4001 -6.40039H-6.3999V70.3996H70.4001V-6.40039Z" fill="#F5F5F5"/>
<path id="Vector_3" d="M70.4001 -6.40039H-6.3999V70.3996H70.4001V-6.40039Z" fill="#242322"/>
<g id="Group">
<g id="Group_2">
<g id="Group_3">
<path id="Vector_4" d="M21.1506 44.2346C29.31 44.2346 35.4753 39.3993 35.4753 31.542C35.4753 23.7146 29.31 18.8486 21.1506 18.8486C12.9906 18.8486 6.85596 23.7146 6.85596 31.542C6.85596 39.3993 12.9906 44.2346 21.1506 44.2346ZM21.1506 43.6C15.2873 43.6 12.356 37.918 12.356 31.542C12.356 25.1953 15.2873 19.4833 21.1506 19.4833C27.0133 19.4833 29.9746 25.1953 29.9746 31.542C29.9746 37.918 27.0133 43.6 21.1506 43.6Z" fill="#F5F5F5"/>
</g>
</g>
</g>
<g id="Group_4">
<g id="Group_5">
<g id="Group_6">
<path id="Vector_5" d="M50.4936 30.0921C54.1203 29.4574 55.7223 27.8254 55.7223 24.9241C55.7223 20.2401 51.6423 19.4541 47.2903 19.4541H37.8916C38.1336 21.7508 38.2243 23.1108 38.2243 25.9214V37.1634C38.2243 39.9741 38.1336 41.3341 37.8916 43.6308H47.7736C53.1229 43.6308 57.4443 42.0894 57.4443 36.9214C57.4443 32.6608 54.5129 30.7868 50.4936 30.0921ZM43.3009 20.0888H45.2956C48.0156 20.0888 50.5543 21.3881 50.5543 24.9241C50.5543 28.0668 49.2243 29.7594 45.5076 29.7594H43.3009V20.0888ZM45.5983 42.9961H43.3009V30.3941H45.8096C48.4389 30.3941 51.9443 31.5428 51.9443 36.9821C51.9443 41.4848 49.0129 42.9961 45.5983 42.9961Z" fill="#F5F5F5"/>
</g>
</g>
</g>
<g id="Clip path group">
<mask id="mask0_361_1089" style="mask-type:luminance" maskUnits="userSpaceOnUse" x="3" y="28" width="58" height="8">
<g id="7121eeb1ee">
<path id="Vector_6" d="M3.44067 28.3828H60.5593V35.2461H3.44067V28.3828Z" fill="white"/>
</g>
</mask>
<g mask="url(#mask0_361_1089)">
<g id="Group_7">
<path id="Vector_7" d="M3.44067 28.3828H60.5487V35.2448H3.44067V28.3828Z" fill="#242322"/>
</g>
</g>
</g>
<g id="Group_8">
<g id="Group_9">
<g id="Group_10">
<path id="Vector_8" d="M7.0022 31.8437C7.0022 31.741 7.01286 31.6397 7.0342 31.5397C7.05686 31.4383 7.09286 31.341 7.14086 31.2463C7.1902 31.1523 7.25086 31.0697 7.3222 30.9983C7.39286 30.9277 7.4802 30.8703 7.58353 30.8277C7.6882 30.785 7.80286 30.7637 7.92753 30.7637C8.07286 30.7637 8.20086 30.8037 8.31153 30.8837C8.42353 30.9623 8.47953 31.0557 8.47953 31.1637C8.47953 31.219 8.46153 31.2663 8.4262 31.305C8.3902 31.3443 8.3422 31.3637 8.2822 31.3637C8.22486 31.3637 8.1782 31.3463 8.14086 31.3103C8.10486 31.275 8.08753 31.2297 8.08753 31.1743C8.08753 31.121 8.1042 31.0757 8.1382 31.0383C8.17353 31.001 8.21686 30.9823 8.26886 30.9823C8.27753 30.9823 8.28486 30.9837 8.2902 30.985V30.9797C8.27553 30.953 8.23753 30.9237 8.17553 30.8917C8.11486 30.8597 8.04086 30.8437 7.9542 30.8437C7.78486 30.8437 7.6462 30.9317 7.5382 31.1077C7.42953 31.2823 7.37553 31.5143 7.37553 31.8037C7.37553 31.9263 7.3862 32.043 7.40753 32.153C7.42886 32.2637 7.45953 32.3637 7.50086 32.4543C7.54353 32.545 7.6002 32.617 7.67153 32.6703C7.7442 32.7237 7.82686 32.7503 7.91953 32.7503C8.05086 32.7503 8.16553 32.7117 8.26353 32.633C8.36086 32.555 8.43753 32.4543 8.49286 32.3317L8.55686 32.361C8.42486 32.6883 8.2022 32.8517 7.88753 32.8517C7.7502 32.8517 7.62886 32.833 7.5222 32.7957C7.41686 32.757 7.33286 32.7063 7.26886 32.6437C7.20486 32.5817 7.1522 32.5063 7.11153 32.417C7.0702 32.3263 7.0422 32.2357 7.0262 32.145C7.0102 32.053 7.0022 31.9523 7.0022 31.8437Z" fill="#A57D2A"/>
</g>
</g>
</g>
<g id="Group_11">
<g id="Group_12">
<g id="Group_13">
<path id="Vector_9" d="M11.0356 31.8143C11.0356 31.6223 11.0703 31.4477 11.1396 31.289C11.209 31.131 11.3103 31.0037 11.4436 30.9077C11.577 30.8117 11.7303 30.7637 11.905 30.7637C12.1663 30.7637 12.377 30.8563 12.537 31.041C12.6983 31.2263 12.7796 31.469 12.7796 31.769C12.7796 31.8797 12.7676 31.9863 12.745 32.089C12.7236 32.1923 12.6896 32.2903 12.6436 32.3823C12.597 32.475 12.5403 32.5557 12.473 32.625C12.407 32.6943 12.325 32.7497 12.2276 32.7903C12.1316 32.831 12.0263 32.8517 11.913 32.8517C11.641 32.8517 11.4263 32.7577 11.2703 32.569C11.1136 32.379 11.0356 32.1277 11.0356 31.8143ZM11.4116 31.7823C11.4116 31.9657 11.429 32.131 11.465 32.2783C11.5003 32.4263 11.5563 32.5463 11.633 32.6383C11.709 32.731 11.7996 32.777 11.905 32.777C12.061 32.777 12.1836 32.6863 12.273 32.505C12.3616 32.3223 12.4063 32.0803 12.4063 31.7797C12.4063 31.467 12.3623 31.2323 12.2756 31.0757C12.1883 30.9197 12.0676 30.841 11.913 30.841C11.8596 30.841 11.8076 30.853 11.7583 30.8757C11.7103 30.897 11.6636 30.933 11.6196 30.9823C11.577 31.0303 11.5403 31.091 11.5103 31.1637C11.4796 31.235 11.4556 31.3237 11.4383 31.4303C11.4203 31.537 11.4116 31.6543 11.4116 31.7823Z" fill="#A57D2A"/>
</g>
</g>
</g>
<g id="Group_14">
<g id="Group_15">
<g id="Group_16">
<path id="Vector_10" d="M15.2966 30.8765V30.8125H15.5953L16.7926 32.2632H16.7953L16.7766 30.8898L16.5633 30.8765V30.8125H17.0806V30.8765L16.8646 30.8898L16.8806 32.8312H16.7953L15.598 31.3778H15.5953L15.614 32.7272L15.8273 32.7405V32.8045H15.31V32.7405L15.526 32.7272L15.51 30.8898L15.2966 30.8765Z" fill="#A57D2A"/>
</g>
</g>
</g>
<g id="Group_17">
<g id="Group_18">
<g id="Group_19">
<path id="Vector_11" d="M20.2639 30.841C20.1959 30.841 20.1366 30.849 20.0852 30.865C20.0352 30.8797 19.9932 30.9017 19.9599 30.9317C19.9259 30.9603 19.8999 30.995 19.8826 31.0357C19.8646 31.075 19.8559 31.1197 19.8559 31.169C19.8559 31.203 19.8599 31.237 19.8692 31.2703C19.8799 31.3043 19.8999 31.339 19.9306 31.3743C19.9606 31.4083 20.0052 31.4437 20.0639 31.481C20.1226 31.5183 20.2006 31.5583 20.2986 31.601C20.4119 31.653 20.5079 31.7017 20.5866 31.7477C20.6646 31.7923 20.7286 31.8403 20.7786 31.8917C20.8279 31.9437 20.8639 32.001 20.8852 32.065C20.9066 32.129 20.9172 32.205 20.9172 32.2917C20.9172 32.3597 20.9039 32.427 20.8772 32.4943C20.8506 32.5603 20.8092 32.6197 20.7546 32.673C20.7012 32.7263 20.6326 32.7703 20.5492 32.8037C20.4672 32.8357 20.3712 32.8517 20.2612 32.8517C20.1386 32.8517 20.0352 32.8397 19.9519 32.817C19.8679 32.7957 19.8006 32.7677 19.7492 32.7317C19.6992 32.6943 19.6626 32.653 19.6399 32.6063C19.6166 32.5603 19.6052 32.5143 19.6052 32.4677C19.6052 32.4377 19.6092 32.409 19.6186 32.3823C19.6292 32.3557 19.6432 32.333 19.6612 32.313C19.6786 32.2917 19.7012 32.2757 19.7279 32.265C19.7546 32.253 19.7846 32.2463 19.8186 32.2463C19.8486 32.2463 19.8759 32.2517 19.9012 32.2623C19.9279 32.273 19.9492 32.2883 19.9652 32.3077C19.9826 32.3257 19.9959 32.347 20.0052 32.3717C20.0159 32.395 20.0212 32.4217 20.0212 32.4517C20.0212 32.5177 20.0012 32.5677 19.9626 32.601C19.9252 32.633 19.8759 32.649 19.8159 32.649V32.657C19.8226 32.6643 19.8352 32.6743 19.8532 32.6863C19.8726 32.699 19.8992 32.7123 19.9332 32.7263C19.9666 32.739 20.0086 32.7503 20.0586 32.761C20.1079 32.7703 20.1679 32.7743 20.2372 32.7743C20.2919 32.7743 20.3472 32.7677 20.4026 32.753C20.4572 32.737 20.5066 32.7157 20.5492 32.689C20.5932 32.661 20.6292 32.627 20.6559 32.5877C20.6826 32.547 20.6959 32.5017 20.6959 32.4517C20.6959 32.4077 20.6879 32.3677 20.6719 32.3317C20.6559 32.2943 20.6252 32.2563 20.5812 32.217C20.5386 32.1783 20.4779 32.1363 20.3999 32.0917C20.3232 32.0477 20.2226 31.9977 20.0986 31.9423C20.0059 31.9037 19.9292 31.861 19.8692 31.8143C19.8106 31.7663 19.7639 31.717 19.7306 31.665C19.6966 31.6117 19.6732 31.557 19.6612 31.4997C19.6486 31.443 19.6426 31.3843 19.6426 31.3237C19.6426 31.2477 19.6559 31.1757 19.6826 31.1077C19.7106 31.0383 19.7519 30.979 19.8052 30.929C19.8586 30.8777 19.9232 30.8377 19.9999 30.809C20.0779 30.779 20.1666 30.7637 20.2666 30.7637C20.3626 30.7637 20.4459 30.7757 20.5172 30.7983C20.5879 30.8197 20.6466 30.849 20.6932 30.8863C20.7392 30.9223 20.7739 30.965 20.7972 31.0143C20.8219 31.0623 20.8346 31.113 20.8346 31.1663C20.8346 31.195 20.8292 31.2217 20.8186 31.2463C20.8092 31.2717 20.7959 31.2937 20.7786 31.313C20.7606 31.333 20.7386 31.349 20.7119 31.361C20.6866 31.3717 20.6572 31.377 20.6239 31.377C20.5932 31.377 20.5652 31.373 20.5386 31.3637C20.5132 31.353 20.4919 31.339 20.4746 31.321C20.4566 31.3037 20.4426 31.2823 20.4319 31.257C20.4226 31.2323 20.4186 31.2057 20.4186 31.177C20.4186 31.145 20.4239 31.117 20.4346 31.0917C20.4466 31.065 20.4619 31.0437 20.4799 31.0277C20.4992 31.0103 20.5212 30.997 20.5466 30.9877C20.5732 30.979 20.6012 30.9743 20.6319 30.9743V30.969C20.6266 30.9623 20.6146 30.9517 20.5972 30.937C20.5812 30.923 20.5579 30.909 20.5279 30.8943C20.4992 30.8803 20.4626 30.8677 20.4186 30.857C20.3739 30.8463 20.3226 30.841 20.2639 30.841Z" fill="#A57D2A"/>
</g>
</g>
</g>
<g id="Group_20">
<g id="Group_21">
<g id="Group_22">
<path id="Vector_12" d="M23.3943 31.4978L23.4103 30.8125H24.933L24.9463 31.4952H24.8716C24.857 31.4245 24.845 31.3672 24.8343 31.3245C24.825 31.2805 24.8136 31.2338 24.7996 31.1858C24.787 31.1365 24.773 31.0978 24.757 31.0712C24.7423 31.0445 24.725 31.0178 24.7036 30.9912C24.6823 30.9632 24.657 30.9425 24.629 30.9298C24.6023 30.9178 24.5703 30.9078 24.533 30.9005C24.497 30.8918 24.4556 30.8872 24.4076 30.8872C24.4036 30.8872 24.3956 30.8885 24.3836 30.8898C24.373 30.8898 24.363 30.8898 24.3543 30.8898V32.7272L24.5703 32.7405V32.8045H23.7836V32.7405L23.997 32.7272L23.989 30.8898C23.9796 30.8898 23.969 30.8898 23.957 30.8898C23.9463 30.8898 23.9383 30.8898 23.933 30.8898C23.8916 30.8898 23.8543 30.8925 23.821 30.8978C23.789 30.9018 23.7596 30.9105 23.733 30.9245C23.7063 30.9372 23.683 30.9505 23.6636 30.9645C23.6436 30.9792 23.6263 31.0005 23.6103 31.0285C23.5943 31.0572 23.5796 31.0845 23.5676 31.1112C23.557 31.1365 23.5443 31.1718 23.5303 31.2178C23.5176 31.2625 23.4983 31.3558 23.4716 31.4978H23.3943Z" fill="#A57D2A"/>
</g>
</g>
</g>
<g id="Group_23">
<g id="Group_24">
<g id="Group_25">
<path id="Vector_13" d="M27.4197 32.8045V32.7405L27.6357 32.7272V30.8898L27.4197 30.8765V30.8125H28.1637C28.2663 30.8125 28.3597 30.8218 28.4437 30.8392C28.527 30.8572 28.6017 30.8858 28.6677 30.9245C28.733 30.9618 28.7837 31.0138 28.8197 31.0792C28.855 31.1432 28.873 31.2192 28.873 31.3058C28.873 31.4658 28.8197 31.5905 28.713 31.6792C28.6063 31.7685 28.461 31.8252 28.2783 31.8498V31.8552C28.3563 31.8552 28.4237 31.8678 28.481 31.8925C28.5377 31.9158 28.583 31.9472 28.617 31.9858C28.6523 32.0232 28.685 32.0712 28.7157 32.1298C28.735 32.1712 28.7637 32.2338 28.801 32.3192C28.8397 32.4032 28.8783 32.4778 28.9157 32.5432C28.9457 32.5952 28.977 32.6358 29.009 32.6658C29.041 32.6945 29.0677 32.7125 29.089 32.7192C29.1117 32.7245 29.1383 32.7272 29.169 32.7272V32.8045H28.937C28.8657 32.8045 28.8097 32.8005 28.769 32.7912C28.7277 32.7825 28.687 32.7612 28.6463 32.7272C28.605 32.6938 28.569 32.6472 28.537 32.5885C28.5063 32.5298 28.453 32.4065 28.377 32.2178C28.3643 32.1898 28.3477 32.1538 28.3263 32.1112C28.3063 32.0672 28.289 32.0332 28.273 32.0098C28.2583 31.9872 28.241 31.9632 28.2197 31.9378C28.1983 31.9132 28.177 31.8952 28.1557 31.8845C28.1343 31.8738 28.111 31.8685 28.0863 31.8685C28.045 31.8685 28.0143 31.8685 27.993 31.8685V32.7272L28.2063 32.7405V32.8045H27.4197ZM27.993 31.7885C28.0037 31.7905 28.0223 31.7912 28.049 31.7912C28.2143 31.7912 28.3303 31.7512 28.3983 31.6712C28.4657 31.5898 28.4997 31.4685 28.4997 31.3085C28.4997 31.2285 28.4897 31.1612 28.4703 31.1058C28.4523 31.0512 28.4257 31.0085 28.3903 30.9778C28.3543 30.9458 28.3157 30.9238 28.273 30.9112C28.2303 30.8972 28.181 30.8898 28.1263 30.8898C28.0903 30.8898 28.0463 30.8945 27.993 30.9032V31.7885Z" fill="#A57D2A"/>
</g>
</g>
</g>
<g id="Group_26">
<g id="Group_27">
<g id="Group_28">
<path id="Vector_14" d="M31.4739 30.8765V30.8125H32.2605V30.8765L32.0445 30.8898V32.1938C32.0445 32.2312 32.0452 32.2652 32.0472 32.2952C32.0485 32.3258 32.0532 32.3612 32.0605 32.4018C32.0672 32.4432 32.0772 32.4792 32.0899 32.5112C32.1019 32.5418 32.1205 32.5725 32.1459 32.6045C32.1705 32.6365 32.1992 32.6632 32.2312 32.6845C32.2645 32.7058 32.3065 32.7238 32.3565 32.7378C32.4079 32.7505 32.4659 32.7565 32.5299 32.7565C32.6059 32.7565 32.6739 32.7452 32.7325 32.7218C32.7912 32.6992 32.8392 32.6685 32.8765 32.6312C32.9139 32.5925 32.9439 32.5452 32.9672 32.4898C32.9899 32.4352 33.0059 32.3792 33.0152 32.3218C33.0259 32.2652 33.0312 32.2038 33.0312 32.1378V30.8898L32.8179 30.8765V30.8125H33.3325V30.8765L33.1192 30.8898V32.1672C33.1192 32.2352 33.1139 32.2992 33.1032 32.3592C33.0925 32.4198 33.0725 32.4812 33.0445 32.5432C33.0159 32.6058 32.9785 32.6592 32.9325 32.7032C32.8879 32.7458 32.8265 32.7818 32.7485 32.8098C32.6719 32.8378 32.5839 32.8525 32.4845 32.8525C32.3812 32.8525 32.2885 32.8452 32.2072 32.8312C32.1252 32.8165 32.0565 32.7978 32.0019 32.7725C31.9465 32.7478 31.8992 32.7165 31.8605 32.6792C31.8212 32.6405 31.7899 32.6018 31.7672 32.5645C31.7459 32.5272 31.7279 32.4818 31.7139 32.4285C31.7012 32.3752 31.6932 32.3272 31.6899 32.2845C31.6879 32.2418 31.6872 32.1925 31.6872 32.1352V30.8898L31.4739 30.8765Z" fill="#A57D2A"/>
</g>
</g>
</g>
<g id="Group_29">
<g id="Group_30">
<g id="Group_31">
<path id="Vector_15" d="M35.825 31.8437C35.825 31.741 35.8356 31.6397 35.857 31.5397C35.8796 31.4383 35.9156 31.341 35.9636 31.2463C36.013 31.1523 36.0736 31.0697 36.145 30.9983C36.2156 30.9277 36.303 30.8703 36.4063 30.8277C36.511 30.785 36.6256 30.7637 36.7503 30.7637C36.8956 30.7637 37.0236 30.8037 37.1343 30.8837C37.2463 30.9623 37.3023 31.0557 37.3023 31.1637C37.3023 31.219 37.2843 31.2663 37.249 31.305C37.213 31.3443 37.165 31.3637 37.105 31.3637C37.0476 31.3637 37.001 31.3463 36.9636 31.3103C36.9276 31.275 36.9103 31.2297 36.9103 31.1743C36.9103 31.121 36.927 31.0757 36.961 31.0383C36.9963 31.001 37.0396 30.9823 37.0916 30.9823C37.1003 30.9823 37.1076 30.9837 37.113 30.985V30.9797C37.0983 30.953 37.0603 30.9237 36.9983 30.8917C36.9376 30.8597 36.8636 30.8437 36.777 30.8437C36.6076 30.8437 36.469 30.9317 36.361 31.1077C36.2523 31.2823 36.1983 31.5143 36.1983 31.8037C36.1983 31.9263 36.209 32.043 36.2303 32.153C36.2516 32.2637 36.2823 32.3637 36.3236 32.4543C36.3663 32.545 36.423 32.617 36.4943 32.6703C36.567 32.7237 36.6496 32.7503 36.7423 32.7503C36.8736 32.7503 36.9883 32.7117 37.0863 32.633C37.1836 32.555 37.2603 32.4543 37.3156 32.3317L37.3796 32.361C37.2476 32.6883 37.025 32.8517 36.7103 32.8517C36.573 32.8517 36.4516 32.833 36.345 32.7957C36.2396 32.757 36.1556 32.7063 36.0916 32.6437C36.0276 32.5817 35.975 32.5063 35.9343 32.417C35.893 32.3263 35.865 32.2357 35.849 32.145C35.833 32.053 35.825 31.9523 35.825 31.8437Z" fill="#A57D2A"/>
</g>
</g>
</g>
<g id="Group_32">
<g id="Group_33">
<g id="Group_34">
<path id="Vector_16" d="M39.8076 31.4978L39.8236 30.8125H41.3463L41.3596 31.4952H41.285C41.2703 31.4245 41.2583 31.3672 41.2476 31.3245C41.2383 31.2805 41.227 31.2338 41.213 31.1858C41.2003 31.1365 41.1863 31.0978 41.1703 31.0712C41.1556 31.0445 41.1383 31.0178 41.117 30.9912C41.0956 30.9632 41.0703 30.9425 41.0423 30.9298C41.0156 30.9178 40.9836 30.9078 40.9463 30.9005C40.9103 30.8918 40.869 30.8872 40.821 30.8872C40.817 30.8872 40.809 30.8885 40.797 30.8898C40.7863 30.8898 40.7763 30.8898 40.7676 30.8898V32.7272L40.9836 32.7405V32.8045H40.197V32.7405L40.4103 32.7272L40.4023 30.8898C40.393 30.8898 40.3823 30.8898 40.3703 30.8898C40.3596 30.8898 40.3516 30.8898 40.3463 30.8898C40.305 30.8898 40.2676 30.8925 40.2343 30.8978C40.2023 30.9018 40.173 30.9105 40.1463 30.9245C40.1196 30.9372 40.0963 30.9505 40.077 30.9645C40.057 30.9792 40.0396 31.0005 40.0236 31.0285C40.0076 31.0572 39.993 31.0845 39.981 31.1112C39.9703 31.1365 39.9576 31.1718 39.9436 31.2178C39.931 31.2625 39.9116 31.3558 39.885 31.4978H39.8076Z" fill="#A57D2A"/>
</g>
</g>
</g>
<g id="Group_35">
<g id="Group_36">
<g id="Group_37">
<path id="Vector_17" d="M43.833 32.8045V32.7405L44.049 32.7272V30.8898L43.833 30.8765V30.8125H44.6197V30.8765L44.4063 30.8898V32.7272L44.6197 32.7405V32.8045H43.833Z" fill="#A57D2A"/>
</g>
</g>
</g>
<g id="Group_38">
<g id="Group_39">
<g id="Group_40">
<path id="Vector_18" d="M47.1433 31.8143C47.1433 31.6223 47.178 31.4477 47.2473 31.289C47.3166 31.131 47.418 31.0037 47.5513 30.9077C47.6846 30.8117 47.838 30.7637 48.0126 30.7637C48.274 30.7637 48.4846 30.8563 48.6446 31.041C48.806 31.2263 48.8873 31.469 48.8873 31.769C48.8873 31.8797 48.8753 31.9863 48.8526 32.089C48.8313 32.1923 48.7973 32.2903 48.7513 32.3823C48.7046 32.475 48.648 32.5557 48.5806 32.625C48.5146 32.6943 48.4326 32.7497 48.3353 32.7903C48.2393 32.831 48.134 32.8517 48.0206 32.8517C47.7486 32.8517 47.534 32.7577 47.378 32.569C47.2213 32.379 47.1433 32.1277 47.1433 31.8143ZM47.5193 31.7823C47.5193 31.9657 47.5366 32.131 47.5726 32.2783C47.608 32.4263 47.664 32.5463 47.7406 32.6383C47.8166 32.731 47.9073 32.777 48.0126 32.777C48.1686 32.777 48.2913 32.6863 48.3806 32.505C48.4693 32.3223 48.514 32.0803 48.514 31.7797C48.514 31.467 48.47 31.2323 48.3833 31.0757C48.296 30.9197 48.1753 30.841 48.0206 30.841C47.9673 30.841 47.9153 30.853 47.866 30.8757C47.818 30.897 47.7713 30.933 47.7273 30.9823C47.6846 31.0303 47.648 31.091 47.618 31.1637C47.5873 31.235 47.5633 31.3237 47.546 31.4303C47.528 31.537 47.5193 31.6543 47.5193 31.7823Z" fill="#A57D2A"/>
</g>
</g>
</g>
<g id="Group_41">
<g id="Group_42">
<g id="Group_43">
<path id="Vector_19" d="M51.4043 30.8765V30.8125H51.703L52.9003 32.2632H52.903L52.8843 30.8898L52.671 30.8765V30.8125H53.1883V30.8765L52.9723 30.8898L52.9883 32.8312H52.903L51.7056 31.3778H51.703L51.7216 32.7272L51.935 32.7405V32.8045H51.4176V32.7405L51.6336 32.7272L51.6176 30.8898L51.4043 30.8765Z" fill="#A57D2A"/>
</g>
</g>
</g>
<g id="Group_44">
<g id="Group_45">
<g id="Group_46">
<path id="Vector_20" d="M56.3716 30.841C56.3036 30.841 56.2442 30.849 56.1929 30.865C56.1429 30.8797 56.1009 30.9017 56.0676 30.9317C56.0336 30.9603 56.0076 30.995 55.9902 31.0357C55.9722 31.075 55.9636 31.1197 55.9636 31.169C55.9636 31.203 55.9676 31.237 55.9769 31.2703C55.9876 31.3043 56.0076 31.339 56.0382 31.3743C56.0682 31.4083 56.1129 31.4437 56.1716 31.481C56.2302 31.5183 56.3082 31.5583 56.4062 31.601C56.5196 31.653 56.6156 31.7017 56.6942 31.7477C56.7722 31.7923 56.8362 31.8403 56.8862 31.8917C56.9356 31.9437 56.9716 32.001 56.9929 32.065C57.0142 32.129 57.0249 32.205 57.0249 32.2917C57.0249 32.3597 57.0116 32.427 56.9849 32.4943C56.9582 32.5603 56.9169 32.6197 56.8622 32.673C56.8089 32.7263 56.7402 32.7703 56.6569 32.8037C56.5749 32.8357 56.4789 32.8517 56.3689 32.8517C56.2462 32.8517 56.1429 32.8397 56.0596 32.817C55.9756 32.7957 55.9082 32.7677 55.8569 32.7317C55.8069 32.6943 55.7702 32.653 55.7476 32.6063C55.7242 32.5603 55.7129 32.5143 55.7129 32.4677C55.7129 32.4377 55.7169 32.409 55.7262 32.3823C55.7369 32.3557 55.7509 32.333 55.7689 32.313C55.7862 32.2917 55.8089 32.2757 55.8356 32.265C55.8622 32.253 55.8922 32.2463 55.9262 32.2463C55.9562 32.2463 55.9836 32.2517 56.0089 32.2623C56.0356 32.273 56.0569 32.2883 56.0729 32.3077C56.0902 32.3257 56.1036 32.347 56.1129 32.3717C56.1236 32.395 56.1289 32.4217 56.1289 32.4517C56.1289 32.5177 56.1089 32.5677 56.0702 32.601C56.0329 32.633 55.9836 32.649 55.9236 32.649V32.657C55.9302 32.6643 55.9429 32.6743 55.9609 32.6863C55.9802 32.699 56.0069 32.7123 56.0409 32.7263C56.0742 32.739 56.1162 32.7503 56.1662 32.761C56.2156 32.7703 56.2756 32.7743 56.3449 32.7743C56.3996 32.7743 56.4549 32.7677 56.5102 32.753C56.5649 32.737 56.6142 32.7157 56.6569 32.689C56.7009 32.661 56.7369 32.627 56.7636 32.5877C56.7902 32.547 56.8036 32.5017 56.8036 32.4517C56.8036 32.4077 56.7956 32.3677 56.7796 32.3317C56.7636 32.2943 56.7329 32.2563 56.6889 32.217C56.6462 32.1783 56.5856 32.1363 56.5076 32.0917C56.4309 32.0477 56.3302 31.9977 56.2062 31.9423C56.1136 31.9037 56.0369 31.861 55.9769 31.8143C55.9182 31.7663 55.8716 31.717 55.8382 31.665C55.8042 31.6117 55.7809 31.557 55.7689 31.4997C55.7562 31.443 55.7502 31.3843 55.7502 31.3237C55.7502 31.2477 55.7636 31.1757 55.7902 31.1077C55.8182 31.0383 55.8596 30.979 55.9129 30.929C55.9662 30.8777 56.0309 30.8377 56.1076 30.809C56.1856 30.779 56.2742 30.7637 56.3742 30.7637C56.4702 30.7637 56.5536 30.7757 56.6249 30.7983C56.6956 30.8197 56.7542 30.849 56.8009 30.8863C56.8469 30.9223 56.8816 30.965 56.9049 31.0143C56.9296 31.0623 56.9422 31.113 56.9422 31.1663C56.9422 31.195 56.9369 31.2217 56.9262 31.2463C56.9169 31.2717 56.9036 31.2937 56.8862 31.313C56.8682 31.333 56.8462 31.349 56.8196 31.361C56.7942 31.3717 56.7649 31.377 56.7316 31.377C56.7009 31.377 56.6729 31.373 56.6462 31.3637C56.6209 31.353 56.5996 31.339 56.5822 31.321C56.5642 31.3037 56.5502 31.2823 56.5396 31.257C56.5302 31.2323 56.5262 31.2057 56.5262 31.177C56.5262 31.145 56.5316 31.117 56.5422 31.0917C56.5542 31.065 56.5696 31.0437 56.5876 31.0277C56.6069 31.0103 56.6289 30.997 56.6542 30.9877C56.6809 30.979 56.7089 30.9743 56.7396 30.9743V30.969C56.7342 30.9623 56.7222 30.9517 56.7049 30.937C56.6889 30.923 56.6656 30.909 56.6356 30.8943C56.6069 30.8803 56.5702 30.8677 56.5262 30.857C56.4816 30.8463 56.4302 30.841 56.3716 30.841Z" fill="#A57D2A"/>
</g>
</g>
</g>
<g id="Group_47">
<g id="Group_48">
<g id="Group_49">
<path id="Vector_21" d="M28.561 46.9745V46.9292L28.7157 46.9185V45.6012L28.561 45.5932V45.5479H29.5477L29.5584 45.9532H29.5157C29.5064 45.9092 29.4977 45.8705 29.489 45.8385C29.4797 45.8065 29.4664 45.7745 29.449 45.7425C29.433 45.7105 29.413 45.6859 29.3904 45.6679C29.369 45.6485 29.3404 45.6325 29.305 45.6199C29.271 45.6079 29.231 45.6012 29.185 45.6012C29.1277 45.6012 29.057 45.6052 28.9717 45.6119V46.2065C28.991 46.2085 29.0277 46.2092 29.081 46.2092C29.1504 46.2092 29.1997 46.1925 29.2304 46.1585C29.2604 46.1232 29.2757 46.0599 29.2757 45.9692H29.3317V46.5079H29.2757C29.2757 46.4172 29.2604 46.3545 29.2304 46.3185C29.1997 46.2832 29.1504 46.2652 29.081 46.2652C29.029 46.2652 28.993 46.2665 28.9717 46.2679V46.9105C29.057 46.9159 29.141 46.9185 29.225 46.9185C29.2657 46.9185 29.3004 46.9159 29.329 46.9105C29.359 46.9039 29.385 46.8932 29.4064 46.8785C29.429 46.8645 29.4477 46.8485 29.4624 46.8305C29.4784 46.8112 29.4917 46.7872 29.5024 46.7585C29.5144 46.7305 29.5244 46.7019 29.5317 46.6732C29.5404 46.6452 29.5484 46.6092 29.5557 46.5665H29.5984L29.5877 46.9745H28.561Z" fill="#F5F5F5"/>
</g>
</g>
<g id="Group_50">
<g id="Group_51">
<path id="Vector_22" d="M30.275 45.566C30.227 45.566 30.1843 45.5727 30.147 45.5847C30.111 45.5954 30.081 45.6114 30.0563 45.6327C30.031 45.6527 30.0123 45.6774 30.0003 45.7074C29.9876 45.736 29.9816 45.7674 29.9816 45.8007C29.9816 45.826 29.985 45.8507 29.9923 45.8754C29.999 45.8987 30.0136 45.9227 30.035 45.9474C30.0563 45.9727 30.087 45.998 30.1283 46.0247C30.171 46.0514 30.2276 46.0807 30.299 46.1127C30.3803 46.15 30.449 46.1847 30.5043 46.2167C30.561 46.2487 30.607 46.2834 30.643 46.3207C30.6783 46.358 30.7043 46.4 30.7203 46.446C30.7363 46.4907 30.7443 46.5447 30.7443 46.6087C30.7443 46.6567 30.7343 46.7047 30.715 46.7527C30.695 46.8007 30.6656 46.8434 30.627 46.8807C30.5876 46.918 30.539 46.9494 30.4803 46.974C30.4216 46.9967 30.3523 47.0087 30.2723 47.0087C30.183 47.0087 30.1083 47.0007 30.0483 46.9847C29.9896 46.9687 29.9416 46.9474 29.9043 46.9207C29.8683 46.894 29.843 46.8647 29.827 46.8327C29.811 46.7994 29.803 46.766 29.803 46.734C29.803 46.7114 29.8063 46.6907 29.8136 46.6727C29.8203 46.6534 29.8303 46.6367 29.843 46.622C29.855 46.608 29.871 46.5967 29.891 46.5874C29.9103 46.5787 29.9316 46.574 29.955 46.574C29.9763 46.574 29.9956 46.5787 30.0136 46.5874C30.033 46.5947 30.049 46.6054 30.0616 46.6194C30.0736 46.632 30.083 46.6474 30.0883 46.6647C30.095 46.6807 30.099 46.6994 30.099 46.7207C30.099 46.7687 30.0856 46.8054 30.059 46.83C30.0323 46.8534 29.9963 46.8647 29.9523 46.8647V46.8674C29.9576 46.8727 29.9663 46.8807 29.979 46.8914C29.993 46.9007 30.0123 46.9094 30.0376 46.918C30.0623 46.9274 30.0923 46.9354 30.1283 46.942C30.1636 46.9494 30.2056 46.9527 30.2536 46.9527C30.2943 46.9527 30.3343 46.9474 30.3736 46.9367C30.4123 46.926 30.447 46.9114 30.4776 46.8914C30.5096 46.872 30.535 46.848 30.555 46.8194C30.5743 46.7894 30.5843 46.7567 30.5843 46.7207C30.5843 46.6907 30.5776 46.662 30.5656 46.6354C30.555 46.6087 30.5336 46.582 30.5016 46.5554C30.471 46.5274 30.4276 46.4967 30.371 46.4647C30.3156 46.4327 30.2436 46.3974 30.155 46.358C30.089 46.33 30.035 46.2987 29.9923 46.2647C29.9496 46.2314 29.9156 46.1954 29.891 46.158C29.8676 46.1207 29.851 46.082 29.8403 46.0407C29.831 45.998 29.827 45.9554 29.827 45.9127C29.827 45.858 29.8363 45.806 29.8563 45.758C29.8776 45.71 29.907 45.6687 29.9443 45.6327C29.983 45.5954 30.0303 45.566 30.0856 45.5447C30.1403 45.5234 30.2036 45.5127 30.275 45.5127C30.3443 45.5127 30.4036 45.5207 30.4536 45.5367C30.505 45.5527 30.5476 45.574 30.5816 45.6007C30.615 45.626 30.6403 45.656 30.6563 45.6914C30.6736 45.7274 30.683 45.7634 30.683 45.8007C30.683 45.8207 30.679 45.84 30.6723 45.8594C30.665 45.8774 30.655 45.8934 30.643 45.9074C30.6303 45.92 30.6143 45.9307 30.595 45.9394C30.577 45.9487 30.5556 45.9527 30.531 45.9527C30.5096 45.9527 30.4896 45.9494 30.4723 45.942C30.4543 45.9334 30.4383 45.9227 30.4243 45.91C30.4116 45.898 30.4016 45.8834 30.395 45.8674C30.3876 45.85 30.3843 45.83 30.3843 45.8087C30.3843 45.786 30.3876 45.7654 30.395 45.7474C30.4036 45.728 30.415 45.712 30.4296 45.6994C30.4436 45.6874 30.4596 45.678 30.4776 45.6727C30.497 45.666 30.5176 45.662 30.539 45.662V45.6594C30.5336 45.654 30.5243 45.6474 30.5123 45.638C30.5016 45.6274 30.4856 45.6167 30.4643 45.606C30.443 45.5954 30.4163 45.5867 30.3843 45.5794C30.3536 45.5707 30.3176 45.566 30.275 45.566Z" fill="#F5F5F5"/>
</g>
</g>
<g id="Group_52">
<g id="Group_53">
<path id="Vector_23" d="M30.8804 46.0385L30.8884 45.5479H31.9817L31.9924 46.0359H31.9364C31.927 45.9845 31.919 45.9439 31.9124 45.9132C31.905 45.8812 31.8964 45.8485 31.8857 45.8145C31.8764 45.7792 31.867 45.7519 31.8564 45.7319C31.8457 45.7125 31.8324 45.6939 31.8164 45.6759C31.8004 45.6565 31.7824 45.6425 31.763 45.6332C31.743 45.6225 31.7204 45.6145 31.6937 45.6092C31.6684 45.6039 31.639 45.6012 31.6057 45.6012C31.6017 45.6012 31.5957 45.6012 31.587 45.6012C31.5797 45.6012 31.5724 45.6012 31.5657 45.6012V46.9185L31.7204 46.9292V46.9745H31.1577V46.9292L31.3097 46.9185L31.3044 45.6039C31.297 45.6039 31.289 45.6039 31.2804 45.6039C31.273 45.6025 31.2677 45.6012 31.2644 45.6012C31.2337 45.6012 31.207 45.6032 31.1844 45.6065C31.161 45.6105 31.1397 45.6172 31.1204 45.6279C31.1024 45.6372 31.0864 45.6465 31.0724 45.6572C31.0577 45.6679 31.0444 45.6832 31.0324 45.7025C31.0217 45.7225 31.0117 45.7419 31.003 45.7612C30.9937 45.7792 30.985 45.8052 30.9764 45.8385C30.967 45.8705 30.953 45.9372 30.9337 46.0385H30.8804Z" fill="#F5F5F5"/>
</g>
</g>
<g id="Group_54">
<g id="Group_55">
<path id="Vector_24" d="M32.1443 46.873C32.1443 46.8324 32.1563 46.7997 32.1816 46.7744C32.2083 46.7477 32.2416 46.7344 32.283 46.7344C32.3256 46.7344 32.359 46.7477 32.3843 46.7744C32.409 46.7997 32.4216 46.8324 32.4216 46.873C32.4216 46.9144 32.409 46.947 32.3843 46.9717C32.359 46.9964 32.3256 47.009 32.283 47.009C32.2416 47.009 32.2083 46.9964 32.1816 46.9717C32.1563 46.947 32.1443 46.9144 32.1443 46.873Z" fill="#F5F5F5"/>
</g>
</g>
<g id="Group_56">
<g id="Group_57">
<path id="Vector_25" d="M32.595 45.8647C32.595 45.8367 32.5983 45.8074 32.6056 45.7767C32.6143 45.7467 32.6296 45.7154 32.651 45.6834C32.6723 45.6514 32.699 45.6234 32.731 45.598C32.7643 45.5734 32.807 45.5527 32.859 45.5367C32.9103 45.5207 32.969 45.5127 33.035 45.5127C33.163 45.5127 33.2656 45.544 33.3443 45.606C33.4223 45.6667 33.4616 45.7494 33.4616 45.854C33.4616 45.9467 33.4363 46.0347 33.387 46.118C33.337 46.2 33.247 46.302 33.1176 46.4247C32.8916 46.6434 32.7636 46.7654 32.7336 46.79L33.1363 46.7847C33.1843 46.7847 33.2223 46.784 33.251 46.782C33.279 46.7787 33.3056 46.7734 33.331 46.766C33.3556 46.7594 33.3743 46.7494 33.387 46.7367C33.399 46.7227 33.409 46.7047 33.4163 46.6834C33.425 46.662 33.431 46.6354 33.435 46.6034H33.4883L33.4803 46.974H32.6083V46.83C32.679 46.768 32.7523 46.696 32.827 46.614C32.903 46.5327 32.9663 46.4567 33.0163 46.3874C33.0536 46.336 33.0843 46.2854 33.1096 46.2354C33.1343 46.184 33.1523 46.1354 33.163 46.0887C33.1736 46.0407 33.1796 46.0007 33.1816 45.9687C33.185 45.9367 33.187 45.9007 33.187 45.8594C33.187 45.762 33.1663 45.69 33.1256 45.6434C33.0863 45.5954 33.031 45.5714 32.9603 45.5714C32.9283 45.5714 32.897 45.5767 32.867 45.5874C32.8363 45.598 32.8116 45.6114 32.7923 45.6274C32.7723 45.6434 32.7563 45.6594 32.7443 45.6754C32.7336 45.6914 32.7256 45.7067 32.7203 45.7207V45.726C32.7256 45.7247 32.7336 45.7234 32.7443 45.7234C32.787 45.7234 32.8216 45.738 32.8483 45.766C32.875 45.7927 32.8883 45.8274 32.8883 45.87C32.8883 45.9114 32.875 45.946 32.8483 45.974C32.8216 46.0007 32.787 46.014 32.7443 46.014C32.6976 46.014 32.6616 46 32.635 45.9714C32.6083 45.9414 32.595 45.906 32.595 45.8647Z" fill="#F5F5F5"/>
</g>
</g>
<g id="Group_58">
<g id="Group_59">
<path id="Vector_26" d="M33.6821 46.2807C33.6821 46.1994 33.6888 46.1207 33.7035 46.046C33.7175 45.97 33.7388 45.8994 33.7675 45.8354C33.7975 45.77 33.8328 45.7127 33.8741 45.6647C33.9168 45.6167 33.9675 45.5794 34.0261 45.5527C34.0861 45.526 34.1521 45.5127 34.2235 45.5127C34.3975 45.5127 34.5315 45.578 34.6261 45.7074C34.7201 45.8354 34.7675 46.01 34.7675 46.23C34.7675 46.31 34.7621 46.3867 34.7515 46.4594C34.7408 46.5327 34.7221 46.6027 34.6955 46.67C34.6688 46.738 34.6348 46.7967 34.5941 46.846C34.5528 46.896 34.5015 46.936 34.4395 46.966C34.3768 46.994 34.3068 47.0087 34.2288 47.0087C34.1061 47.0087 34.0028 46.978 33.9195 46.918C33.8375 46.856 33.7768 46.7714 33.7381 46.6647C33.7008 46.558 33.6821 46.43 33.6821 46.2807ZM33.9541 46.246C33.9541 46.3867 33.9635 46.5094 33.9835 46.614C34.0028 46.7194 34.0328 46.802 34.0741 46.862C34.1148 46.9227 34.1648 46.9527 34.2235 46.9527C34.3101 46.9527 34.3768 46.8914 34.4235 46.7687C34.4715 46.646 34.4955 46.4714 34.4955 46.2434C34.4955 45.792 34.4061 45.566 34.2288 45.566C34.2001 45.566 34.1728 45.5734 34.1461 45.5874C34.1208 45.602 34.0961 45.626 34.0715 45.6594C34.0481 45.6934 34.0275 45.736 34.0101 45.7874C33.9941 45.8374 33.9808 45.9014 33.9701 45.9794C33.9595 46.058 33.9541 46.1467 33.9541 46.246Z" fill="#F5F5F5"/>
</g>
</g>
<g id="Group_60">
<g id="Group_61">
<path id="Vector_27" d="M34.9451 45.8647C34.9451 45.8367 34.9484 45.8074 34.9557 45.7767C34.9644 45.7467 34.9797 45.7154 35.0011 45.6834C35.0224 45.6514 35.0491 45.6234 35.0811 45.598C35.1144 45.5734 35.1571 45.5527 35.2091 45.5367C35.2604 45.5207 35.3191 45.5127 35.3851 45.5127C35.5131 45.5127 35.6157 45.544 35.6944 45.606C35.7724 45.6667 35.8117 45.7494 35.8117 45.854C35.8117 45.9467 35.7864 46.0347 35.7371 46.118C35.6871 46.2 35.5971 46.302 35.4677 46.4247C35.2417 46.6434 35.1137 46.7654 35.0837 46.79L35.4864 46.7847C35.5344 46.7847 35.5724 46.784 35.6011 46.782C35.6291 46.7787 35.6557 46.7734 35.6811 46.766C35.7057 46.7594 35.7244 46.7494 35.7371 46.7367C35.7491 46.7227 35.7591 46.7047 35.7664 46.6834C35.7751 46.662 35.7811 46.6354 35.7851 46.6034H35.8384L35.8304 46.974H34.9584V46.83C35.0291 46.768 35.1024 46.696 35.1771 46.614C35.2531 46.5327 35.3164 46.4567 35.3664 46.3874C35.4037 46.336 35.4344 46.2854 35.4597 46.2354C35.4844 46.184 35.5024 46.1354 35.5131 46.0887C35.5237 46.0407 35.5297 46.0007 35.5317 45.9687C35.5351 45.9367 35.5371 45.9007 35.5371 45.8594C35.5371 45.762 35.5164 45.69 35.4757 45.6434C35.4364 45.5954 35.3811 45.5714 35.3104 45.5714C35.2784 45.5714 35.2471 45.5767 35.2171 45.5874C35.1864 45.598 35.1617 45.6114 35.1424 45.6274C35.1224 45.6434 35.1064 45.6594 35.0944 45.6754C35.0837 45.6914 35.0757 45.7067 35.0704 45.7207V45.726C35.0757 45.7247 35.0837 45.7234 35.0944 45.7234C35.1371 45.7234 35.1717 45.738 35.1984 45.766C35.2251 45.7927 35.2384 45.8274 35.2384 45.87C35.2384 45.9114 35.2251 45.946 35.1984 45.974C35.1717 46.0007 35.1371 46.014 35.0944 46.014C35.0477 46.014 35.0117 46 34.9851 45.9714C34.9584 45.9414 34.9451 45.906 34.9451 45.8647Z" fill="#F5F5F5"/>
</g>
</g>
<g id="Group_62">
<g id="Group_63">
<path id="Vector_28" d="M36.0266 45.83C36.0266 45.8107 36.0299 45.7894 36.0373 45.766C36.0439 45.7414 36.0566 45.714 36.0746 45.6834C36.0939 45.6534 36.1179 45.626 36.1466 45.6007C36.1766 45.576 36.2166 45.5554 36.2666 45.5394C36.3179 45.522 36.3746 45.5127 36.4373 45.5127C36.5666 45.5127 36.6699 45.544 36.7466 45.606C36.8246 45.6687 36.8639 45.7567 36.8639 45.87C36.8639 45.9554 36.8333 46.026 36.7733 46.0807C36.7126 46.136 36.6219 46.1707 36.5013 46.1847V46.1874C36.7959 46.216 36.9439 46.36 36.9439 46.6194C36.9439 46.6694 36.9339 46.7174 36.9146 46.7634C36.8946 46.808 36.8653 46.8487 36.8266 46.886C36.7873 46.9234 36.7339 46.9527 36.6666 46.974C36.6006 46.9967 36.5253 47.0087 36.4399 47.0087C36.2993 47.0087 36.1953 46.9847 36.1279 46.9367C36.0599 46.8874 36.0266 46.822 36.0266 46.742C36.0266 46.7014 36.0399 46.666 36.0666 46.6354C36.0946 46.6034 36.1313 46.5874 36.1759 46.5874C36.2199 46.5874 36.2559 46.602 36.2826 46.63C36.3093 46.6567 36.3226 46.6907 36.3226 46.7314C36.3226 46.776 36.3079 46.81 36.2799 46.8327C36.2533 46.856 36.2173 46.8674 36.1733 46.8674V46.8727L36.1866 46.8887C36.1899 46.8927 36.1979 46.8994 36.2106 46.91C36.2246 46.9194 36.2386 46.926 36.2533 46.9314C36.2673 46.9354 36.2866 46.9394 36.3119 46.9447C36.3386 46.95 36.3679 46.9527 36.3999 46.9527C36.4853 46.9527 36.5526 46.9247 36.6026 46.8674C36.6519 46.8087 36.6773 46.7274 36.6773 46.622C36.6773 46.5954 36.6759 46.5734 36.6746 46.5554C36.6746 46.536 36.6719 46.5114 36.6666 46.4807C36.6626 46.4507 36.6566 46.4247 36.6479 46.4034C36.6406 46.382 36.6293 46.36 36.6133 46.3367C36.5986 46.312 36.5813 46.2927 36.5599 46.278C36.5386 46.262 36.5106 46.25 36.4773 46.2407C36.4453 46.23 36.4086 46.2247 36.3679 46.2247H36.2986V46.1687H36.3626C36.4086 46.1687 36.4479 46.1607 36.4799 46.1447C36.5133 46.1287 36.5393 46.1067 36.5573 46.078C36.5746 46.048 36.5873 46.016 36.5946 45.982C36.6033 45.9487 36.6079 45.9114 36.6079 45.87C36.6079 45.778 36.5879 45.7047 36.5493 45.6514C36.5119 45.598 36.4539 45.5714 36.3759 45.5714C36.3173 45.5714 36.2666 45.5874 36.2239 45.6194C36.1813 45.65 36.1546 45.6794 36.1439 45.7074V45.7127C36.1879 45.706 36.2246 45.7147 36.2533 45.7394C36.2813 45.7647 36.2959 45.7994 36.2959 45.8434C36.2959 45.8827 36.2833 45.9147 36.2586 45.9394C36.2353 45.9647 36.2033 45.9767 36.1626 45.9767C36.1199 45.9767 36.0859 45.9634 36.0613 45.9367C36.0379 45.91 36.0266 45.8747 36.0266 45.83Z" fill="#F5F5F5"/>
</g>
</g>
</g>
</g>
<defs>
<clipPath id="clip0_361_1089">
<rect width="64" height="64" fill="white"/>
</clipPath>
</defs>
</svg>
