<svg width="473" height="500" viewBox="0 0 473 500" fill="none" xmlns="http://www.w3.org/2000/svg">
<g clip-path="url(#clip0_269_1854)">
<g filter="url(#filter0_dddddd_269_1854)">
<path d="M165.24 345.586C228.984 345.586 277.151 307.81 277.151 246.424C277.151 185.273 228.984 147.258 165.24 147.258C101.49 147.258 53.5625 185.273 53.5625 246.424C53.5625 307.81 101.49 345.586 165.24 345.586ZM165.24 340.628C119.432 340.628 96.5312 296.237 96.5312 246.424C96.5312 196.841 119.432 152.216 165.24 152.216C211.042 152.216 234.177 196.841 234.177 246.424C234.177 296.237 211.042 340.628 165.24 340.628Z" fill="#F5F5F5"/>
</g>
<g filter="url(#filter1_dddddd_269_1854)">
<path d="M394.481 235.092C422.815 230.133 435.33 217.383 435.33 194.717C435.33 158.123 403.455 151.982 369.455 151.982H296.028C297.919 169.925 298.627 180.55 298.627 202.508V290.337C298.627 312.295 297.919 322.92 296.028 340.863H373.231C415.023 340.863 448.784 328.821 448.784 288.446C448.784 255.16 425.882 240.519 394.481 235.092ZM338.289 156.941H353.872C375.122 156.941 394.955 167.092 394.955 194.717C394.955 219.269 384.565 232.493 355.528 232.493H338.289V156.941ZM356.237 335.904H338.289V237.451H357.888C378.429 237.451 405.815 246.425 405.815 288.92C405.815 324.097 382.914 335.904 356.237 335.904Z" fill="#F5F5F5"/>
</g>
<g filter="url(#filter2_dddddd_269_1854)">
<mask id="mask0_269_1854" style="mask-type:luminance" maskUnits="userSpaceOnUse" x="26" y="221" width="448" height="55">
<path d="M26.8799 221.745H473.119V275.365H26.8799V221.745Z" fill="white"/>
</mask>
<g mask="url(#mask0_269_1854)">
<path d="M26.8799 221.745H473.036V275.354H26.8799V221.745Z" fill="#232322"/>
</g>
</g>
<path d="M54.7041 248.782C54.7041 247.98 54.7874 247.188 54.9541 246.407C55.1312 245.616 55.4124 244.855 55.7874 244.116C56.1729 243.381 56.6468 242.735 57.2041 242.178C57.7562 241.626 58.4385 241.178 59.2458 240.845C60.0635 240.511 60.9593 240.345 61.9333 240.345C63.0687 240.345 64.0687 240.657 64.9333 241.282C65.8083 241.897 66.2458 242.626 66.2458 243.47C66.2458 243.902 66.1051 244.272 65.8291 244.574C65.5479 244.881 65.1729 245.032 64.7041 245.032C64.2562 245.032 63.8916 244.897 63.5999 244.616C63.3187 244.34 63.1833 243.985 63.1833 243.553C63.1833 243.136 63.3135 242.782 63.5791 242.491C63.8551 242.199 64.1937 242.053 64.5999 242.053C64.6676 242.053 64.7249 242.063 64.7666 242.074V242.032C64.652 241.824 64.3551 241.595 63.8708 241.345C63.3968 241.095 62.8187 240.97 62.1416 240.97C60.8187 240.97 59.7354 241.657 58.8916 243.032C58.0426 244.397 57.6208 246.209 57.6208 248.47C57.6208 249.428 57.7041 250.34 57.8708 251.199C58.0374 252.063 58.277 252.845 58.5999 253.553C58.9333 254.261 59.376 254.824 59.9333 255.241C60.501 255.657 61.1468 255.866 61.8708 255.866C62.8968 255.866 63.7926 255.563 64.5583 254.949C65.3187 254.34 65.9176 253.553 66.3499 252.595L66.8499 252.824C65.8187 255.381 64.0791 256.657 61.6208 256.657C60.5479 256.657 59.5999 256.511 58.7666 256.22C57.9437 255.918 57.2874 255.522 56.7874 255.032C56.2874 254.548 55.876 253.959 55.5583 253.261C55.2354 252.553 55.0166 251.845 54.8916 251.136C54.7666 250.418 54.7041 249.631 54.7041 248.782Z" fill="#A57D2A"/>
<path d="M86.2148 248.553C86.2148 247.053 86.4857 245.688 87.0273 244.449C87.569 243.215 88.3607 242.22 89.4023 241.47C90.444 240.72 91.6419 240.345 93.0065 240.345C95.0482 240.345 96.694 241.069 97.944 242.511C99.2044 243.959 99.8398 245.855 99.8398 248.199C99.8398 249.063 99.7461 249.897 99.569 250.699C99.4023 251.506 99.1367 252.272 98.7773 252.991C98.4128 253.715 97.9701 254.345 97.444 254.886C96.9284 255.428 96.2878 255.86 95.5273 256.178C94.7773 256.496 93.9544 256.657 93.069 256.657C90.944 256.657 89.2669 255.923 88.0482 254.449C86.8242 252.965 86.2148 251.001 86.2148 248.553ZM89.1523 248.303C89.1523 249.735 89.2878 251.027 89.569 252.178C89.8451 253.334 90.2826 254.272 90.8815 254.991C91.4753 255.715 92.1836 256.074 93.0065 256.074C94.2253 256.074 95.1836 255.366 95.8815 253.949C96.5742 252.522 96.9232 250.631 96.9232 248.282C96.9232 245.84 96.5794 244.006 95.9023 242.782C95.2201 241.563 94.2773 240.949 93.069 240.949C92.6523 240.949 92.2461 241.043 91.8607 241.22C91.4857 241.386 91.1211 241.668 90.7773 242.053C90.444 242.428 90.1576 242.902 89.9232 243.47C89.6836 244.027 89.4961 244.72 89.3607 245.553C89.2201 246.386 89.1523 247.303 89.1523 248.303Z" fill="#A57D2A"/>
<path d="M119.504 241.22V240.72H121.837L131.191 252.053H131.212L131.066 241.324L129.4 241.22V240.72H133.441V241.22L131.754 241.324L131.879 256.491H131.212L121.858 245.136H121.837L121.983 255.678L123.65 255.782V256.282H119.608V255.782L121.296 255.678L121.171 241.324L119.504 241.22Z" fill="#A57D2A"/>
<path d="M158.312 240.949C157.781 240.949 157.317 241.011 156.916 241.136C156.525 241.251 156.197 241.423 155.937 241.657C155.671 241.881 155.468 242.152 155.333 242.47C155.192 242.777 155.124 243.126 155.124 243.511C155.124 243.777 155.156 244.043 155.229 244.303C155.312 244.569 155.468 244.84 155.708 245.116C155.942 245.381 156.291 245.657 156.749 245.949C157.208 246.241 157.817 246.553 158.583 246.886C159.468 247.293 160.218 247.673 160.833 248.032C161.442 248.381 161.942 248.756 162.333 249.157C162.718 249.563 162.999 250.011 163.166 250.511C163.333 251.011 163.416 251.605 163.416 252.282C163.416 252.813 163.312 253.34 163.104 253.866C162.895 254.381 162.572 254.845 162.145 255.261C161.729 255.678 161.192 256.022 160.541 256.282C159.9 256.532 159.15 256.657 158.291 256.657C157.333 256.657 156.525 256.563 155.874 256.386C155.218 256.22 154.692 256.001 154.291 255.72C153.9 255.428 153.614 255.105 153.437 254.741C153.255 254.381 153.166 254.022 153.166 253.657C153.166 253.423 153.197 253.199 153.27 252.991C153.354 252.782 153.463 252.605 153.604 252.449C153.739 252.282 153.916 252.157 154.124 252.074C154.333 251.98 154.567 251.928 154.833 251.928C155.067 251.928 155.281 251.97 155.479 252.053C155.687 252.136 155.854 252.256 155.979 252.407C156.114 252.548 156.218 252.715 156.291 252.907C156.374 253.09 156.416 253.298 156.416 253.532C156.416 254.048 156.26 254.438 155.958 254.699C155.666 254.949 155.281 255.074 154.812 255.074V255.136C154.864 255.194 154.963 255.272 155.104 255.366C155.255 255.465 155.463 255.569 155.729 255.678C155.989 255.777 156.317 255.866 156.708 255.949C157.093 256.022 157.562 256.053 158.104 256.053C158.531 256.053 158.963 256.001 159.395 255.886C159.822 255.761 160.208 255.595 160.541 255.386C160.885 255.168 161.166 254.902 161.374 254.595C161.583 254.277 161.687 253.923 161.687 253.532C161.687 253.188 161.624 252.876 161.499 252.595C161.374 252.303 161.135 252.006 160.791 251.699C160.458 251.397 159.984 251.069 159.374 250.72C158.775 250.376 157.989 249.985 157.02 249.553C156.296 249.251 155.697 248.918 155.229 248.553C154.77 248.178 154.406 247.793 154.145 247.386C153.88 246.97 153.697 246.543 153.604 246.095C153.505 245.652 153.458 245.194 153.458 244.72C153.458 244.126 153.562 243.563 153.77 243.032C153.989 242.491 154.312 242.027 154.729 241.636C155.145 241.235 155.65 240.923 156.249 240.699C156.859 240.465 157.551 240.345 158.333 240.345C159.083 240.345 159.734 240.438 160.291 240.616C160.843 240.782 161.301 241.011 161.666 241.303C162.025 241.584 162.296 241.918 162.479 242.303C162.671 242.678 162.77 243.074 162.77 243.491C162.77 243.715 162.729 243.923 162.645 244.116C162.572 244.313 162.468 244.485 162.333 244.636C162.192 244.793 162.02 244.918 161.812 245.011C161.614 245.095 161.385 245.136 161.124 245.136C160.885 245.136 160.666 245.105 160.458 245.032C160.26 244.949 160.093 244.84 159.958 244.699C159.817 244.563 159.708 244.397 159.624 244.199C159.551 244.006 159.52 243.798 159.52 243.574C159.52 243.324 159.562 243.105 159.645 242.907C159.739 242.699 159.859 242.532 159.999 242.407C160.15 242.272 160.322 242.168 160.52 242.095C160.729 242.027 160.947 241.991 161.187 241.991V241.949C161.145 241.897 161.051 241.813 160.916 241.699C160.791 241.59 160.609 241.48 160.374 241.366C160.15 241.256 159.864 241.157 159.52 241.074C159.171 240.991 158.77 240.949 158.312 240.949Z" fill="#A57D2A"/>
<path d="M182.768 246.074L182.893 240.72H194.788L194.893 246.053H194.309C194.195 245.501 194.101 245.053 194.018 244.72C193.945 244.376 193.856 244.011 193.747 243.636C193.648 243.251 193.538 242.949 193.413 242.741C193.299 242.532 193.163 242.324 192.997 242.116C192.83 241.897 192.632 241.735 192.413 241.636C192.205 241.543 191.955 241.465 191.663 241.407C191.382 241.34 191.059 241.303 190.684 241.303C190.653 241.303 190.59 241.313 190.497 241.324C190.413 241.324 190.335 241.324 190.268 241.324V255.678L191.955 255.782V256.282H185.809V255.782L187.476 255.678L187.413 241.324C187.34 241.324 187.257 241.324 187.163 241.324C187.08 241.324 187.018 241.324 186.976 241.324C186.653 241.324 186.361 241.345 186.101 241.386C185.851 241.418 185.622 241.485 185.413 241.595C185.205 241.694 185.023 241.798 184.872 241.907C184.715 242.022 184.58 242.188 184.455 242.407C184.33 242.631 184.215 242.845 184.122 243.053C184.038 243.251 183.939 243.527 183.83 243.886C183.731 244.235 183.58 244.965 183.372 246.074H182.768Z" fill="#A57D2A"/>
<path d="M214.216 256.282V255.782L215.903 255.678V241.324L214.216 241.22V240.72H220.028C220.83 240.72 221.56 240.793 222.216 240.928C222.867 241.069 223.45 241.293 223.966 241.595C224.476 241.886 224.872 242.293 225.153 242.803C225.429 243.303 225.57 243.897 225.57 244.574C225.57 245.824 225.153 246.798 224.32 247.491C223.487 248.188 222.351 248.631 220.924 248.824V248.866C221.534 248.866 222.06 248.965 222.507 249.157C222.95 249.34 223.304 249.584 223.57 249.886C223.846 250.178 224.101 250.553 224.341 251.011C224.492 251.334 224.716 251.824 225.007 252.491C225.31 253.147 225.612 253.73 225.903 254.241C226.138 254.647 226.382 254.965 226.632 255.199C226.882 255.423 227.091 255.563 227.257 255.616C227.435 255.657 227.643 255.678 227.882 255.678V256.282H226.07C225.513 256.282 225.075 256.251 224.757 256.178C224.435 256.11 224.117 255.944 223.799 255.678C223.476 255.418 223.195 255.053 222.945 254.595C222.705 254.136 222.289 253.173 221.695 251.699C221.596 251.48 221.466 251.199 221.299 250.866C221.143 250.522 221.007 250.256 220.882 250.074C220.768 249.897 220.632 249.709 220.466 249.511C220.299 249.319 220.132 249.178 219.966 249.095C219.799 249.011 219.617 248.97 219.424 248.97C219.101 248.97 218.862 248.97 218.695 248.97V255.678L220.362 255.782V256.282H214.216ZM218.695 248.345C218.778 248.36 218.924 248.366 219.132 248.366C220.424 248.366 221.33 248.053 221.862 247.428C222.388 246.793 222.653 245.845 222.653 244.595C222.653 243.97 222.575 243.444 222.424 243.011C222.284 242.584 222.075 242.251 221.799 242.011C221.518 241.761 221.216 241.59 220.882 241.491C220.549 241.381 220.164 241.324 219.737 241.324C219.455 241.324 219.112 241.36 218.695 241.428V248.345Z" fill="#A57D2A"/>
<path d="M245.89 241.22V240.72H252.035V241.22L250.348 241.324V251.511C250.348 251.803 250.353 252.069 250.369 252.303C250.379 252.543 250.416 252.819 250.473 253.136C250.525 253.459 250.603 253.741 250.702 253.991C250.796 254.23 250.942 254.47 251.14 254.72C251.332 254.97 251.556 255.178 251.806 255.345C252.067 255.511 252.395 255.652 252.785 255.761C253.187 255.86 253.64 255.907 254.14 255.907C254.733 255.907 255.265 255.819 255.723 255.636C256.181 255.459 256.556 255.22 256.848 254.928C257.14 254.626 257.374 254.256 257.556 253.824C257.733 253.397 257.858 252.959 257.931 252.511C258.015 252.069 258.056 251.59 258.056 251.074V241.324L256.39 241.22V240.72H260.41V241.22L258.744 241.324V251.303C258.744 251.834 258.702 252.334 258.619 252.803C258.535 253.277 258.379 253.756 258.16 254.241C257.937 254.73 257.645 255.147 257.285 255.491C256.937 255.824 256.457 256.105 255.848 256.324C255.249 256.543 254.562 256.657 253.785 256.657C252.978 256.657 252.254 256.6 251.619 256.491C250.978 256.376 250.442 256.23 250.015 256.032C249.582 255.84 249.213 255.595 248.91 255.303C248.603 255.001 248.358 254.699 248.181 254.407C248.015 254.116 247.874 253.761 247.765 253.345C247.666 252.928 247.603 252.553 247.577 252.22C247.562 251.886 247.556 251.501 247.556 251.053V241.324L245.89 241.22Z" fill="#A57D2A"/>
<path d="M279.882 248.782C279.882 247.98 279.965 247.188 280.132 246.407C280.309 245.616 280.59 244.855 280.965 244.116C281.351 243.381 281.825 242.735 282.382 242.178C282.934 241.626 283.616 241.178 284.424 240.845C285.241 240.511 286.137 240.345 287.111 240.345C288.246 240.345 289.246 240.657 290.111 241.282C290.986 241.897 291.424 242.626 291.424 243.47C291.424 243.902 291.283 244.272 291.007 244.574C290.726 244.881 290.351 245.032 289.882 245.032C289.434 245.032 289.069 244.897 288.778 244.616C288.496 244.34 288.361 243.985 288.361 243.553C288.361 243.136 288.491 242.782 288.757 242.491C289.033 242.199 289.371 242.053 289.778 242.053C289.845 242.053 289.903 242.063 289.944 242.074V242.032C289.83 241.824 289.533 241.595 289.049 241.345C288.575 241.095 287.996 240.97 287.319 240.97C285.996 240.97 284.913 241.657 284.069 243.032C283.22 244.397 282.799 246.209 282.799 248.47C282.799 249.428 282.882 250.34 283.049 251.199C283.215 252.063 283.455 252.845 283.778 253.553C284.111 254.261 284.554 254.824 285.111 255.241C285.679 255.657 286.325 255.866 287.049 255.866C288.075 255.866 288.97 255.563 289.736 254.949C290.496 254.34 291.095 253.553 291.528 252.595L292.028 252.824C290.996 255.381 289.257 256.657 286.799 256.657C285.726 256.657 284.778 256.511 283.944 256.22C283.121 255.918 282.465 255.522 281.965 255.032C281.465 254.548 281.054 253.959 280.736 253.261C280.413 252.553 280.194 251.845 280.069 251.136C279.944 250.418 279.882 249.631 279.882 248.782Z" fill="#A57D2A"/>
<path d="M310.997 246.074L311.122 240.72H323.018L323.122 246.053H322.539C322.424 245.501 322.33 245.053 322.247 244.72C322.174 244.376 322.086 244.011 321.976 243.636C321.877 243.251 321.768 242.949 321.643 242.741C321.528 242.532 321.393 242.324 321.226 242.116C321.06 241.897 320.862 241.735 320.643 241.636C320.435 241.543 320.185 241.465 319.893 241.407C319.612 241.34 319.289 241.303 318.914 241.303C318.882 241.303 318.82 241.313 318.726 241.324C318.643 241.324 318.565 241.324 318.497 241.324V255.678L320.185 255.782V256.282H314.039V255.782L315.705 255.678L315.643 241.324C315.57 241.324 315.487 241.324 315.393 241.324C315.31 241.324 315.247 241.324 315.205 241.324C314.882 241.324 314.591 241.345 314.33 241.386C314.08 241.418 313.851 241.485 313.643 241.595C313.435 241.694 313.252 241.798 313.101 241.907C312.945 242.022 312.81 242.188 312.685 242.407C312.56 242.631 312.445 242.845 312.351 243.053C312.268 243.251 312.169 243.527 312.06 243.886C311.961 244.235 311.81 244.965 311.601 246.074H310.997Z" fill="#A57D2A"/>
<path d="M342.445 256.282V255.782L344.133 255.678V241.324L342.445 241.22V240.72H348.591V241.22L346.924 241.324V255.678L348.591 255.782V256.282H342.445Z" fill="#A57D2A"/>
<path d="M368.306 248.553C368.306 247.053 368.576 245.688 369.118 244.449C369.66 243.215 370.451 242.22 371.493 241.47C372.535 240.72 373.733 240.345 375.097 240.345C377.139 240.345 378.785 241.069 380.035 242.511C381.295 243.959 381.931 245.855 381.931 248.199C381.931 249.063 381.837 249.897 381.66 250.699C381.493 251.506 381.228 252.272 380.868 252.991C380.504 253.715 380.061 254.345 379.535 254.886C379.019 255.428 378.379 255.86 377.618 256.178C376.868 256.496 376.045 256.657 375.16 256.657C373.035 256.657 371.358 255.923 370.139 254.449C368.915 252.965 368.306 251.001 368.306 248.553ZM371.243 248.303C371.243 249.735 371.379 251.027 371.66 252.178C371.936 253.334 372.373 254.272 372.972 254.991C373.566 255.715 374.274 256.074 375.097 256.074C376.316 256.074 377.274 255.366 377.972 253.949C378.665 252.522 379.014 250.631 379.014 248.282C379.014 245.84 378.67 244.006 377.993 242.782C377.311 241.563 376.368 240.949 375.16 240.949C374.743 240.949 374.337 241.043 373.951 241.22C373.576 241.386 373.212 241.668 372.868 242.053C372.535 242.428 372.248 242.902 372.014 243.47C371.774 244.027 371.587 244.72 371.451 245.553C371.311 246.386 371.243 247.303 371.243 248.303Z" fill="#A57D2A"/>
<path d="M401.596 241.22V240.72H403.929L413.283 252.053H413.304L413.158 241.324L411.492 241.22V240.72H415.533V241.22L413.846 241.324L413.971 256.491H413.304L403.95 245.136H403.929L404.075 255.678L405.742 255.782V256.282H401.7V255.782L403.387 255.678L403.262 241.324L401.596 241.22Z" fill="#A57D2A"/>
<path d="M440.403 240.949C439.871 240.949 439.408 241.011 439.007 241.136C438.616 241.251 438.288 241.423 438.028 241.657C437.762 241.881 437.559 242.152 437.424 242.47C437.283 242.777 437.215 243.126 437.215 243.511C437.215 243.777 437.246 244.043 437.319 244.303C437.403 244.569 437.559 244.84 437.799 245.116C438.033 245.381 438.382 245.657 438.84 245.949C439.299 246.241 439.908 246.553 440.674 246.886C441.559 247.293 442.309 247.673 442.924 248.032C443.533 248.381 444.033 248.756 444.424 249.157C444.809 249.563 445.09 250.011 445.257 250.511C445.424 251.011 445.507 251.605 445.507 252.282C445.507 252.813 445.403 253.34 445.194 253.866C444.986 254.381 444.663 254.845 444.236 255.261C443.819 255.678 443.283 256.022 442.632 256.282C441.991 256.532 441.241 256.657 440.382 256.657C439.424 256.657 438.616 256.563 437.965 256.386C437.309 256.22 436.783 256.001 436.382 255.72C435.991 255.428 435.705 255.105 435.528 254.741C435.345 254.381 435.257 254.022 435.257 253.657C435.257 253.423 435.288 253.199 435.361 252.991C435.444 252.782 435.554 252.605 435.694 252.449C435.83 252.282 436.007 252.157 436.215 252.074C436.424 251.98 436.658 251.928 436.924 251.928C437.158 251.928 437.371 251.97 437.569 252.053C437.778 252.136 437.944 252.256 438.069 252.407C438.205 252.548 438.309 252.715 438.382 252.907C438.465 253.09 438.507 253.298 438.507 253.532C438.507 254.048 438.351 254.438 438.049 254.699C437.757 254.949 437.371 255.074 436.903 255.074V255.136C436.955 255.194 437.054 255.272 437.194 255.366C437.345 255.465 437.554 255.569 437.819 255.678C438.08 255.777 438.408 255.866 438.799 255.949C439.184 256.022 439.653 256.053 440.194 256.053C440.621 256.053 441.054 256.001 441.486 255.886C441.913 255.761 442.299 255.595 442.632 255.386C442.976 255.168 443.257 254.902 443.465 254.595C443.674 254.277 443.778 253.923 443.778 253.532C443.778 253.188 443.715 252.876 443.59 252.595C443.465 252.303 443.226 252.006 442.882 251.699C442.549 251.397 442.075 251.069 441.465 250.72C440.866 250.376 440.08 249.985 439.111 249.553C438.387 249.251 437.788 248.918 437.319 248.553C436.861 248.178 436.496 247.793 436.236 247.386C435.97 246.97 435.788 246.543 435.694 246.095C435.595 245.652 435.549 245.194 435.549 244.72C435.549 244.126 435.653 243.563 435.861 243.032C436.08 242.491 436.403 242.027 436.819 241.636C437.236 241.235 437.741 240.923 438.34 240.699C438.95 240.465 439.642 240.345 440.424 240.345C441.174 240.345 441.825 240.438 442.382 240.616C442.934 240.782 443.392 241.011 443.757 241.303C444.116 241.584 444.387 241.918 444.569 242.303C444.762 242.678 444.861 243.074 444.861 243.491C444.861 243.715 444.819 243.923 444.736 244.116C444.663 244.313 444.559 244.485 444.424 244.636C444.283 244.793 444.111 244.918 443.903 245.011C443.705 245.095 443.476 245.136 443.215 245.136C442.976 245.136 442.757 245.105 442.549 245.032C442.351 244.949 442.184 244.84 442.049 244.699C441.908 244.563 441.799 244.397 441.715 244.199C441.642 244.006 441.611 243.798 441.611 243.574C441.611 243.324 441.653 243.105 441.736 242.907C441.83 242.699 441.95 242.532 442.09 242.407C442.241 242.272 442.413 242.168 442.611 242.095C442.819 242.027 443.038 241.991 443.278 241.991V241.949C443.236 241.897 443.142 241.813 443.007 241.699C442.882 241.59 442.7 241.48 442.465 241.366C442.241 241.256 441.955 241.157 441.611 241.074C441.262 240.991 440.861 240.949 440.403 240.949Z" fill="#A57D2A"/>
<path d="M223.133 366.986V366.632L224.341 366.548V356.257L223.133 356.194V355.84H230.841L230.924 359.007H230.591C230.518 358.663 230.451 358.361 230.383 358.111C230.31 357.861 230.206 357.611 230.07 357.361C229.945 357.111 229.789 356.918 229.612 356.777C229.445 356.626 229.221 356.501 228.945 356.402C228.68 356.309 228.367 356.257 228.008 356.257C227.56 356.257 227.008 356.288 226.341 356.34V360.986C226.492 361.001 226.779 361.007 227.195 361.007C227.737 361.007 228.122 360.876 228.362 360.611C228.596 360.335 228.716 359.84 228.716 359.132H229.154V363.34H228.716C228.716 362.632 228.596 362.142 228.362 361.861C228.122 361.585 227.737 361.444 227.195 361.444C226.789 361.444 226.508 361.454 226.341 361.465V366.486C227.008 366.527 227.664 366.548 228.32 366.548C228.638 366.548 228.909 366.527 229.133 366.486C229.367 366.434 229.57 366.35 229.737 366.236C229.914 366.126 230.06 366.001 230.174 365.861C230.299 365.71 230.404 365.522 230.487 365.298C230.581 365.079 230.659 364.855 230.716 364.632C230.784 364.413 230.846 364.132 230.904 363.798H231.237L231.154 366.986H223.133Z" fill="#A57D2A"/>
<path d="M236.523 355.986C236.148 355.986 235.815 356.038 235.523 356.132C235.242 356.215 235.008 356.34 234.815 356.507C234.617 356.663 234.471 356.856 234.378 357.09C234.279 357.314 234.232 357.559 234.232 357.819C234.232 358.017 234.258 358.21 234.315 358.403C234.367 358.585 234.482 358.772 234.648 358.965C234.815 359.163 235.055 359.361 235.378 359.569C235.711 359.778 236.154 360.007 236.711 360.257C237.346 360.549 237.883 360.819 238.315 361.069C238.758 361.319 239.117 361.59 239.398 361.882C239.674 362.174 239.878 362.502 240.003 362.861C240.128 363.21 240.19 363.632 240.19 364.132C240.19 364.507 240.112 364.882 239.961 365.257C239.805 365.632 239.576 365.965 239.273 366.257C238.966 366.549 238.586 366.793 238.128 366.986C237.669 367.163 237.128 367.257 236.503 367.257C235.805 367.257 235.221 367.194 234.753 367.069C234.294 366.944 233.919 366.778 233.628 366.569C233.346 366.361 233.148 366.132 233.023 365.882C232.898 365.621 232.836 365.361 232.836 365.111C232.836 364.934 232.862 364.772 232.919 364.632C232.971 364.481 233.049 364.351 233.148 364.236C233.242 364.127 233.367 364.038 233.523 363.965C233.674 363.897 233.841 363.861 234.023 363.861C234.19 363.861 234.341 363.897 234.482 363.965C234.633 364.022 234.758 364.106 234.857 364.215C234.951 364.314 235.023 364.434 235.065 364.569C235.117 364.694 235.148 364.84 235.148 365.007C235.148 365.382 235.044 365.668 234.836 365.861C234.628 366.043 234.346 366.132 234.003 366.132V366.153C234.044 366.194 234.112 366.257 234.211 366.34C234.32 366.413 234.471 366.481 234.669 366.549C234.862 366.621 235.096 366.684 235.378 366.736C235.654 366.793 235.982 366.819 236.357 366.819C236.674 366.819 236.987 366.778 237.294 366.694C237.596 366.611 237.867 366.496 238.107 366.34C238.357 366.189 238.555 366.002 238.711 365.778C238.862 365.543 238.94 365.288 238.94 365.007C238.94 364.772 238.888 364.549 238.794 364.34C238.711 364.132 238.544 363.924 238.294 363.715C238.055 363.496 237.716 363.257 237.273 363.007C236.841 362.757 236.279 362.481 235.586 362.174C235.07 361.955 234.648 361.71 234.315 361.444C233.982 361.184 233.716 360.903 233.523 360.611C233.341 360.319 233.211 360.017 233.128 359.694C233.055 359.361 233.023 359.028 233.023 358.694C233.023 358.267 233.096 357.861 233.253 357.486C233.419 357.111 233.648 356.788 233.94 356.507C234.242 356.215 234.612 355.986 235.044 355.819C235.471 355.653 235.966 355.569 236.523 355.569C237.065 355.569 237.529 355.632 237.919 355.757C238.32 355.882 238.654 356.049 238.919 356.257C239.18 356.455 239.378 356.689 239.503 356.965C239.638 357.246 239.711 357.528 239.711 357.819C239.711 357.976 239.68 358.127 239.628 358.278C239.57 358.418 239.492 358.543 239.398 358.653C239.299 358.752 239.174 358.835 239.023 358.903C238.883 358.976 238.716 359.007 238.523 359.007C238.357 359.007 238.201 358.981 238.065 358.924C237.924 358.856 237.799 358.772 237.69 358.674C237.591 358.58 237.513 358.465 237.461 358.34C237.404 358.205 237.378 358.049 237.378 357.882C237.378 357.705 237.404 357.543 237.461 357.403C237.529 357.252 237.617 357.127 237.732 357.028C237.841 356.934 237.966 356.861 238.107 356.819C238.258 356.767 238.419 356.736 238.586 356.736V356.715C238.544 356.674 238.471 356.621 238.378 356.549C238.294 356.465 238.169 356.382 238.003 356.299C237.836 356.215 237.628 356.147 237.378 356.09C237.138 356.022 236.857 355.986 236.523 355.986Z" fill="#A57D2A"/>
<path d="M241.253 359.673L241.315 355.84H249.857L249.94 359.652H249.503C249.43 359.251 249.368 358.934 249.315 358.694C249.258 358.444 249.19 358.189 249.107 357.923C249.034 357.647 248.961 357.434 248.878 357.277C248.795 357.126 248.69 356.98 248.565 356.84C248.44 356.689 248.3 356.579 248.149 356.507C247.993 356.423 247.815 356.361 247.607 356.319C247.409 356.277 247.18 356.257 246.92 356.257C246.888 356.257 246.841 356.257 246.774 356.257C246.716 356.257 246.659 356.257 246.607 356.257V366.548L247.815 366.632V366.986H243.42V366.632L244.607 366.548L244.565 356.277C244.508 356.277 244.446 356.277 244.378 356.277C244.321 356.267 244.279 356.257 244.253 356.257C244.013 356.257 243.805 356.272 243.628 356.298C243.446 356.329 243.279 356.382 243.128 356.465C242.987 356.538 242.862 356.611 242.753 356.694C242.638 356.777 242.534 356.897 242.44 357.048C242.357 357.204 242.279 357.355 242.211 357.507C242.138 357.647 242.071 357.85 242.003 358.111C241.93 358.361 241.821 358.882 241.67 359.673H241.253Z" fill="#A57D2A"/>
<path d="M251.128 366.195C251.128 365.877 251.222 365.622 251.42 365.424C251.628 365.215 251.888 365.111 252.211 365.111C252.545 365.111 252.805 365.215 253.003 365.424C253.196 365.622 253.295 365.877 253.295 366.195C253.295 366.518 253.196 366.773 253.003 366.965C252.805 367.158 252.545 367.257 252.211 367.257C251.888 367.257 251.628 367.158 251.42 366.965C251.222 366.773 251.128 366.518 251.128 366.195Z" fill="#A57D2A"/>
<path d="M254.648 358.319C254.648 358.101 254.674 357.871 254.732 357.632C254.799 357.397 254.919 357.153 255.086 356.903C255.253 356.653 255.461 356.434 255.711 356.236C255.971 356.043 256.305 355.882 256.711 355.757C257.112 355.632 257.57 355.569 258.086 355.569C259.086 355.569 259.888 355.814 260.503 356.299C261.112 356.772 261.419 357.418 261.419 358.236C261.419 358.96 261.221 359.647 260.836 360.299C260.445 360.939 259.742 361.736 258.732 362.694C256.966 364.403 255.966 365.356 255.732 365.549L258.878 365.507C259.253 365.507 259.549 365.502 259.773 365.486C259.992 365.46 260.201 365.418 260.398 365.361C260.591 365.309 260.737 365.231 260.836 365.132C260.93 365.022 261.008 364.882 261.065 364.715C261.133 364.549 261.18 364.34 261.211 364.09H261.628L261.565 366.986H254.753V365.861C255.305 365.377 255.878 364.814 256.461 364.174C257.055 363.538 257.549 362.944 257.94 362.403C258.232 362.002 258.471 361.606 258.669 361.215C258.862 360.814 259.003 360.434 259.086 360.069C259.169 359.694 259.216 359.382 259.232 359.132C259.258 358.882 259.273 358.601 259.273 358.278C259.273 357.517 259.112 356.955 258.794 356.59C258.487 356.215 258.055 356.028 257.503 356.028C257.253 356.028 257.008 356.069 256.773 356.153C256.534 356.236 256.341 356.34 256.19 356.465C256.034 356.59 255.909 356.715 255.815 356.84C255.732 356.965 255.669 357.085 255.628 357.194V357.236C255.669 357.226 255.732 357.215 255.815 357.215C256.148 357.215 256.419 357.33 256.628 357.549C256.836 357.757 256.94 358.028 256.94 358.361C256.94 358.684 256.836 358.955 256.628 359.174C256.419 359.382 256.148 359.486 255.815 359.486C255.451 359.486 255.169 359.377 254.961 359.153C254.753 358.918 254.648 358.642 254.648 358.319Z" fill="#A57D2A"/>
<path d="M263.141 361.569C263.141 360.934 263.193 360.319 263.307 359.736C263.417 359.142 263.583 358.59 263.807 358.09C264.042 357.58 264.318 357.132 264.641 356.757C264.974 356.382 265.37 356.09 265.828 355.882C266.297 355.674 266.812 355.569 267.37 355.569C268.729 355.569 269.776 356.08 270.516 357.09C271.25 358.09 271.62 359.455 271.62 361.174C271.62 361.799 271.578 362.397 271.495 362.965C271.411 363.538 271.266 364.085 271.057 364.611C270.849 365.142 270.583 365.601 270.266 365.986C269.943 366.377 269.542 366.689 269.057 366.924C268.568 367.142 268.021 367.257 267.411 367.257C266.453 367.257 265.646 367.017 264.995 366.549C264.354 366.064 263.88 365.403 263.578 364.569C263.286 363.736 263.141 362.736 263.141 361.569ZM265.266 361.299C265.266 362.397 265.339 363.356 265.495 364.174C265.646 364.996 265.88 365.642 266.203 366.111C266.521 366.585 266.911 366.819 267.37 366.819C268.047 366.819 268.568 366.34 268.932 365.382C269.307 364.424 269.495 363.059 269.495 361.278C269.495 357.752 268.797 355.986 267.411 355.986C267.188 355.986 266.974 356.043 266.766 356.153C266.568 356.267 266.375 356.455 266.182 356.715C266 356.981 265.839 357.314 265.703 357.715C265.578 358.106 265.474 358.606 265.391 359.215C265.307 359.83 265.266 360.522 265.266 361.299Z" fill="#A57D2A"/>
<path d="M273.008 358.319C273.008 358.101 273.034 357.871 273.091 357.632C273.159 357.397 273.279 357.153 273.445 356.903C273.612 356.653 273.82 356.434 274.07 356.236C274.331 356.043 274.664 355.882 275.07 355.757C275.471 355.632 275.93 355.569 276.445 355.569C277.445 355.569 278.247 355.814 278.862 356.299C279.471 356.772 279.779 357.418 279.779 358.236C279.779 358.96 279.581 359.647 279.195 360.299C278.805 360.939 278.102 361.736 277.091 362.694C275.326 364.403 274.326 365.356 274.091 365.549L277.237 365.507C277.612 365.507 277.909 365.502 278.133 365.486C278.352 365.46 278.56 365.418 278.758 365.361C278.951 365.309 279.096 365.231 279.195 365.132C279.289 365.022 279.367 364.882 279.424 364.715C279.492 364.549 279.539 364.34 279.57 364.09H279.987L279.924 366.986H273.112V365.861C273.664 365.377 274.237 364.814 274.82 364.174C275.414 363.538 275.909 362.944 276.299 362.403C276.591 362.002 276.831 361.606 277.029 361.215C277.221 360.814 277.362 360.434 277.445 360.069C277.529 359.694 277.576 359.382 277.591 359.132C277.617 358.882 277.633 358.601 277.633 358.278C277.633 357.517 277.471 356.955 277.154 356.59C276.846 356.215 276.414 356.028 275.862 356.028C275.612 356.028 275.367 356.069 275.133 356.153C274.893 356.236 274.701 356.34 274.549 356.465C274.393 356.59 274.268 356.715 274.174 356.84C274.091 356.965 274.029 357.085 273.987 357.194V357.236C274.029 357.226 274.091 357.215 274.174 357.215C274.508 357.215 274.779 357.33 274.987 357.549C275.195 357.757 275.299 358.028 275.299 358.361C275.299 358.684 275.195 358.955 274.987 359.174C274.779 359.382 274.508 359.486 274.174 359.486C273.81 359.486 273.529 359.377 273.32 359.153C273.112 358.918 273.008 358.642 273.008 358.319Z" fill="#A57D2A"/>
<path d="M281.458 358.049C281.458 357.897 281.484 357.731 281.541 357.549C281.593 357.356 281.692 357.142 281.833 356.903C281.984 356.668 282.172 356.455 282.396 356.257C282.63 356.064 282.942 355.903 283.333 355.778C283.734 355.642 284.177 355.569 284.666 355.569C285.677 355.569 286.484 355.814 287.083 356.299C287.692 356.788 288 357.476 288 358.361C288 359.028 287.76 359.58 287.291 360.007C286.817 360.439 286.109 360.71 285.166 360.819V360.84C287.468 361.064 288.625 362.189 288.625 364.215C288.625 364.606 288.547 364.981 288.396 365.34C288.239 365.689 288.01 366.007 287.708 366.299C287.401 366.59 286.984 366.819 286.458 366.986C285.942 367.163 285.354 367.257 284.687 367.257C283.588 367.257 282.776 367.069 282.25 366.694C281.718 366.309 281.458 365.799 281.458 365.174C281.458 364.856 281.562 364.58 281.771 364.34C281.989 364.09 282.276 363.965 282.625 363.965C282.968 363.965 283.25 364.08 283.458 364.299C283.666 364.507 283.771 364.772 283.771 365.09C283.771 365.439 283.656 365.705 283.437 365.882C283.229 366.064 282.948 366.153 282.604 366.153V366.194L282.708 366.319C282.734 366.351 282.797 366.403 282.896 366.486C283.005 366.559 283.114 366.611 283.229 366.653C283.338 366.684 283.489 366.715 283.687 366.757C283.896 366.799 284.125 366.819 284.375 366.819C285.041 366.819 285.567 366.601 285.958 366.153C286.343 365.694 286.541 365.059 286.541 364.236C286.541 364.028 286.531 363.856 286.521 363.715C286.521 363.564 286.5 363.371 286.458 363.132C286.427 362.897 286.38 362.694 286.312 362.528C286.255 362.361 286.166 362.189 286.041 362.007C285.927 361.814 285.791 361.663 285.625 361.549C285.458 361.424 285.239 361.33 284.979 361.257C284.729 361.174 284.442 361.132 284.125 361.132H283.583V360.694H284.083C284.442 360.694 284.75 360.632 285 360.507C285.26 360.382 285.463 360.21 285.604 359.986C285.739 359.752 285.838 359.502 285.896 359.236C285.963 358.976 286 358.684 286 358.361C286 357.642 285.843 357.069 285.541 356.653C285.25 356.236 284.797 356.028 284.187 356.028C283.729 356.028 283.333 356.153 283 356.403C282.666 356.642 282.458 356.871 282.375 357.09V357.132C282.718 357.08 283.005 357.147 283.229 357.34C283.448 357.538 283.562 357.809 283.562 358.153C283.562 358.46 283.463 358.71 283.271 358.903C283.088 359.101 282.838 359.194 282.521 359.194C282.187 359.194 281.922 359.09 281.729 358.882C281.547 358.674 281.458 358.397 281.458 358.049Z" fill="#A57D2A"/>
</g>
<defs>
<filter id="filter0_dddddd_269_1854" x="-26.4375" y="147.258" width="383.589" height="378.328" filterUnits="userSpaceOnUse" color-interpolation-filters="sRGB">
<feFlood flood-opacity="0" result="BackgroundImageFix"/>
<feColorMatrix in="SourceAlpha" type="matrix" values="0 0 0 0 0 0 0 0 0 0 0 0 0 0 0 0 0 0 127 0" result="hardAlpha"/>
<feOffset dy="2.76726"/>
<feGaussianBlur stdDeviation="1.1069"/>
<feColorMatrix type="matrix" values="0 0 0 0 0 0 0 0 0 0 0 0 0 0 0 0 0 0 0.0196802 0"/>
<feBlend mode="normal" in2="BackgroundImageFix" result="effect1_dropShadow_269_1854"/>
<feColorMatrix in="SourceAlpha" type="matrix" values="0 0 0 0 0 0 0 0 0 0 0 0 0 0 0 0 0 0 127 0" result="hardAlpha"/>
<feOffset dy="6.6501"/>
<feGaussianBlur stdDeviation="2.66004"/>
<feColorMatrix type="matrix" values="0 0 0 0 0 0 0 0 0 0 0 0 0 0 0 0 0 0 0.0282725 0"/>
<feBlend mode="normal" in2="effect1_dropShadow_269_1854" result="effect2_dropShadow_269_1854"/>
<feColorMatrix in="SourceAlpha" type="matrix" values="0 0 0 0 0 0 0 0 0 0 0 0 0 0 0 0 0 0 127 0" result="hardAlpha"/>
<feOffset dy="12.5216"/>
<feGaussianBlur stdDeviation="5.00862"/>
<feColorMatrix type="matrix" values="0 0 0 0 0 0 0 0 0 0 0 0 0 0 0 0 0 0 0.035 0"/>
<feBlend mode="normal" in2="effect2_dropShadow_269_1854" result="effect3_dropShadow_269_1854"/>
<feColorMatrix in="SourceAlpha" type="matrix" values="0 0 0 0 0 0 0 0 0 0 0 0 0 0 0 0 0 0 127 0" result="hardAlpha"/>
<feOffset dy="22.3363"/>
<feGaussianBlur stdDeviation="8.93452"/>
<feColorMatrix type="matrix" values="0 0 0 0 0 0 0 0 0 0 0 0 0 0 0 0 0 0 0.0417275 0"/>
<feBlend mode="normal" in2="effect3_dropShadow_269_1854" result="effect4_dropShadow_269_1854"/>
<feColorMatrix in="SourceAlpha" type="matrix" values="0 0 0 0 0 0 0 0 0 0 0 0 0 0 0 0 0 0 127 0" result="hardAlpha"/>
<feOffset dy="41.7776"/>
<feGaussianBlur stdDeviation="16.711"/>
<feColorMatrix type="matrix" values="0 0 0 0 0 0 0 0 0 0 0 0 0 0 0 0 0 0 0.0503198 0"/>
<feBlend mode="normal" in2="effect4_dropShadow_269_1854" result="effect5_dropShadow_269_1854"/>
<feColorMatrix in="SourceAlpha" type="matrix" values="0 0 0 0 0 0 0 0 0 0 0 0 0 0 0 0 0 0 127 0" result="hardAlpha"/>
<feOffset dy="100"/>
<feGaussianBlur stdDeviation="40"/>
<feColorMatrix type="matrix" values="0 0 0 0 0 0 0 0 0 0 0 0 0 0 0 0 0 0 0.07 0"/>
<feBlend mode="normal" in2="effect5_dropShadow_269_1854" result="effect6_dropShadow_269_1854"/>
<feBlend mode="normal" in="SourceGraphic" in2="effect6_dropShadow_269_1854" result="shape"/>
</filter>
<filter id="filter1_dddddd_269_1854" x="216.028" y="151.982" width="312.755" height="368.88" filterUnits="userSpaceOnUse" color-interpolation-filters="sRGB">
<feFlood flood-opacity="0" result="BackgroundImageFix"/>
<feColorMatrix in="SourceAlpha" type="matrix" values="0 0 0 0 0 0 0 0 0 0 0 0 0 0 0 0 0 0 127 0" result="hardAlpha"/>
<feOffset dy="2.76726"/>
<feGaussianBlur stdDeviation="1.1069"/>
<feColorMatrix type="matrix" values="0 0 0 0 0 0 0 0 0 0 0 0 0 0 0 0 0 0 0.0196802 0"/>
<feBlend mode="normal" in2="BackgroundImageFix" result="effect1_dropShadow_269_1854"/>
<feColorMatrix in="SourceAlpha" type="matrix" values="0 0 0 0 0 0 0 0 0 0 0 0 0 0 0 0 0 0 127 0" result="hardAlpha"/>
<feOffset dy="6.6501"/>
<feGaussianBlur stdDeviation="2.66004"/>
<feColorMatrix type="matrix" values="0 0 0 0 0 0 0 0 0 0 0 0 0 0 0 0 0 0 0.0282725 0"/>
<feBlend mode="normal" in2="effect1_dropShadow_269_1854" result="effect2_dropShadow_269_1854"/>
<feColorMatrix in="SourceAlpha" type="matrix" values="0 0 0 0 0 0 0 0 0 0 0 0 0 0 0 0 0 0 127 0" result="hardAlpha"/>
<feOffset dy="12.5216"/>
<feGaussianBlur stdDeviation="5.00862"/>
<feColorMatrix type="matrix" values="0 0 0 0 0 0 0 0 0 0 0 0 0 0 0 0 0 0 0.035 0"/>
<feBlend mode="normal" in2="effect2_dropShadow_269_1854" result="effect3_dropShadow_269_1854"/>
<feColorMatrix in="SourceAlpha" type="matrix" values="0 0 0 0 0 0 0 0 0 0 0 0 0 0 0 0 0 0 127 0" result="hardAlpha"/>
<feOffset dy="22.3363"/>
<feGaussianBlur stdDeviation="8.93452"/>
<feColorMatrix type="matrix" values="0 0 0 0 0 0 0 0 0 0 0 0 0 0 0 0 0 0 0.0417275 0"/>
<feBlend mode="normal" in2="effect3_dropShadow_269_1854" result="effect4_dropShadow_269_1854"/>
<feColorMatrix in="SourceAlpha" type="matrix" values="0 0 0 0 0 0 0 0 0 0 0 0 0 0 0 0 0 0 127 0" result="hardAlpha"/>
<feOffset dy="41.7776"/>
<feGaussianBlur stdDeviation="16.711"/>
<feColorMatrix type="matrix" values="0 0 0 0 0 0 0 0 0 0 0 0 0 0 0 0 0 0 0.0503198 0"/>
<feBlend mode="normal" in2="effect4_dropShadow_269_1854" result="effect5_dropShadow_269_1854"/>
<feColorMatrix in="SourceAlpha" type="matrix" values="0 0 0 0 0 0 0 0 0 0 0 0 0 0 0 0 0 0 127 0" result="hardAlpha"/>
<feOffset dy="100"/>
<feGaussianBlur stdDeviation="40"/>
<feColorMatrix type="matrix" values="0 0 0 0 0 0 0 0 0 0 0 0 0 0 0 0 0 0 0.07 0"/>
<feBlend mode="normal" in2="effect5_dropShadow_269_1854" result="effect6_dropShadow_269_1854"/>
<feBlend mode="normal" in="SourceGraphic" in2="effect6_dropShadow_269_1854" result="shape"/>
</filter>
<filter id="filter2_dddddd_269_1854" x="-53.1201" y="221.745" width="606.156" height="233.609" filterUnits="userSpaceOnUse" color-interpolation-filters="sRGB">
<feFlood flood-opacity="0" result="BackgroundImageFix"/>
<feColorMatrix in="SourceAlpha" type="matrix" values="0 0 0 0 0 0 0 0 0 0 0 0 0 0 0 0 0 0 127 0" result="hardAlpha"/>
<feOffset dy="2.76726"/>
<feGaussianBlur stdDeviation="1.1069"/>
<feColorMatrix type="matrix" values="0 0 0 0 0 0 0 0 0 0 0 0 0 0 0 0 0 0 0.0196802 0"/>
<feBlend mode="normal" in2="BackgroundImageFix" result="effect1_dropShadow_269_1854"/>
<feColorMatrix in="SourceAlpha" type="matrix" values="0 0 0 0 0 0 0 0 0 0 0 0 0 0 0 0 0 0 127 0" result="hardAlpha"/>
<feOffset dy="6.6501"/>
<feGaussianBlur stdDeviation="2.66004"/>
<feColorMatrix type="matrix" values="0 0 0 0 0 0 0 0 0 0 0 0 0 0 0 0 0 0 0.0282725 0"/>
<feBlend mode="normal" in2="effect1_dropShadow_269_1854" result="effect2_dropShadow_269_1854"/>
<feColorMatrix in="SourceAlpha" type="matrix" values="0 0 0 0 0 0 0 0 0 0 0 0 0 0 0 0 0 0 127 0" result="hardAlpha"/>
<feOffset dy="12.5216"/>
<feGaussianBlur stdDeviation="5.00862"/>
<feColorMatrix type="matrix" values="0 0 0 0 0 0 0 0 0 0 0 0 0 0 0 0 0 0 0.035 0"/>
<feBlend mode="normal" in2="effect2_dropShadow_269_1854" result="effect3_dropShadow_269_1854"/>
<feColorMatrix in="SourceAlpha" type="matrix" values="0 0 0 0 0 0 0 0 0 0 0 0 0 0 0 0 0 0 127 0" result="hardAlpha"/>
<feOffset dy="22.3363"/>
<feGaussianBlur stdDeviation="8.93452"/>
<feColorMatrix type="matrix" values="0 0 0 0 0 0 0 0 0 0 0 0 0 0 0 0 0 0 0.0417275 0"/>
<feBlend mode="normal" in2="effect3_dropShadow_269_1854" result="effect4_dropShadow_269_1854"/>
<feColorMatrix in="SourceAlpha" type="matrix" values="0 0 0 0 0 0 0 0 0 0 0 0 0 0 0 0 0 0 127 0" result="hardAlpha"/>
<feOffset dy="41.7776"/>
<feGaussianBlur stdDeviation="16.711"/>
<feColorMatrix type="matrix" values="0 0 0 0 0 0 0 0 0 0 0 0 0 0 0 0 0 0 0.0503198 0"/>
<feBlend mode="normal" in2="effect4_dropShadow_269_1854" result="effect5_dropShadow_269_1854"/>
<feColorMatrix in="SourceAlpha" type="matrix" values="0 0 0 0 0 0 0 0 0 0 0 0 0 0 0 0 0 0 127 0" result="hardAlpha"/>
<feOffset dy="100"/>
<feGaussianBlur stdDeviation="40"/>
<feColorMatrix type="matrix" values="0 0 0 0 0 0 0 0 0 0 0 0 0 0 0 0 0 0 0.07 0"/>
<feBlend mode="normal" in2="effect5_dropShadow_269_1854" result="effect6_dropShadow_269_1854"/>
<feBlend mode="normal" in="SourceGraphic" in2="effect6_dropShadow_269_1854" result="shape"/>
</filter>
<clipPath id="clip0_269_1854">
<rect width="500" height="500" fill="white"/>
</clipPath>
</defs>
</svg>
