<svg width="33" height="32" viewBox="0 0 33 32" fill="none" xmlns="http://www.w3.org/2000/svg">
<path d="M20.1174 27.4649L14.7824 17.7849L5.35245 12.6899C5.27138 12.6404 5.20611 12.5687 5.1643 12.4834C5.12248 12.3981 5.10585 12.3026 5.11634 12.2081C5.12683 12.1137 5.16402 12.0242 5.22355 11.9501C5.28307 11.8761 5.36247 11.8205 5.45245 11.7899L27.8524 4.31993C27.9409 4.28963 28.0362 4.28476 28.1273 4.30588C28.2184 4.32701 28.3018 4.37327 28.368 4.43942C28.4341 4.50556 28.4804 4.58894 28.5015 4.68007C28.5226 4.7712 28.5177 4.86642 28.4874 4.95493L21.0174 27.3649C20.9869 27.4549 20.9313 27.5343 20.8572 27.5938C20.7832 27.6534 20.6937 27.6905 20.5992 27.701C20.5048 27.7115 20.4093 27.6949 20.324 27.6531C20.2387 27.6113 20.167 27.546 20.1174 27.4649V27.4649Z" stroke="#F5F5F5" stroke-width="3"/>
<path d="M28.3772 4.45508L14.7822 17.7851" stroke="#F5F5F5" stroke-width="3" stroke-linecap="round"/>
</svg>
