<svg width="64" height="64" viewBox="0 0 64 64" fill="none" xmlns="http://www.w3.org/2000/svg">
<path d="M52 27.1799V52.7599C51.9896 53.1434 51.9038 53.5211 51.7474 53.8714C51.591 54.2218 51.3671 54.5378 51.0885 54.8016C50.8099 55.0653 50.482 55.2716 50.1237 55.4086C49.7653 55.5455 49.3835 55.6106 49 55.5999H15C14.6165 55.6106 14.2347 55.5455 13.8763 55.4086C13.518 55.2716 13.1901 55.0653 12.9115 54.8016C12.6329 54.5378 12.409 54.2218 12.2526 53.8714C12.0962 53.5211 12.0104 53.1434 12 52.7599V27.1699" stroke="#D4AE5F" stroke-width="3"/>
<path d="M26.2598 55.5202V38.4502H37.8398V55.5202" stroke="#D4AE5F" stroke-width="3"/>
<path d="M8.43979 19.1804C8.43979 19.1804 7.33979 26.9404 14.8898 28.1204C15.9921 28.284 17.1173 28.1884 18.1761 27.8412C19.235 27.494 20.1984 26.9049 20.9898 26.1204C21.6946 26.8812 22.5509 27.4861 23.5036 27.896C24.4563 28.306 25.4843 28.5119 26.5214 28.5006C27.5585 28.4893 28.5817 28.261 29.5252 27.8304C30.4688 27.3998 31.3117 26.7764 31.9998 26.0004C33.2772 27.4517 35.0718 28.3454 36.9998 28.4904C39.1243 28.3188 41.163 27.5759 42.8998 26.3404C43.4969 26.9903 44.2173 27.5151 45.019 27.8842C45.8207 28.2533 46.6878 28.4593 47.5698 28.4904C48.7334 28.4957 49.8842 28.2471 50.9418 27.7619C51.9995 27.2767 52.9386 26.5666 53.6936 25.6812C54.4486 24.7957 55.0013 23.7562 55.3133 22.6352C55.6253 21.5142 55.6889 20.3386 55.4998 19.1904L50.7798 9.0504C50.7083 8.859 50.5799 8.69409 50.4118 8.57788C50.2437 8.46167 50.0441 8.39973 49.8398 8.4004H13.9998C13.7943 8.40048 13.5938 8.46389 13.4256 8.58198C13.2574 8.70008 13.1297 8.86713 13.0598 9.0604L8.43979 19.1804Z" stroke="#D4AE5F" stroke-width="3"/>
<path d="M8.44043 19.1797H55.5404" stroke="#D4AE5F" stroke-width="3"/>
<path d="M21.04 19.1804V8.40039" stroke="#D4AE5F" stroke-width="3"/>
<path d="M32.0498 19.1804V8.40039" stroke="#D4AE5F" stroke-width="3"/>
<path d="M43.0098 19.1804V8.40039" stroke="#D4AE5F" stroke-width="3"/>
</svg>
