<svg width="35" height="34" viewBox="0 0 35 34" fill="none" xmlns="http://www.w3.org/2000/svg">
<path d="M29.4478 6.53462C29.4478 6.48149 29.4 6.44962 29.3575 6.48681C28.5234 7.20931 26.51 7.79368 26.255 7.82024C26.2474 7.82361 26.2393 7.82536 26.2311 7.82536C26.2228 7.82536 26.2147 7.82361 26.2072 7.82024C24.7303 5.46149 21.325 6.09899 21.325 6.09899C16.3206 7.16149 16.8731 12.219 16.9687 12.7502C16.9687 12.7768 16.9687 12.7981 16.9209 12.7981C11.3534 13.0743 6.49247 7.89993 5.93997 7.28899C5.93449 7.28232 5.92759 7.27694 5.91979 7.27325C5.91198 7.26956 5.90345 7.26765 5.89481 7.26765C5.88618 7.26765 5.87765 7.26956 5.86984 7.27325C5.86203 7.27694 5.85514 7.28232 5.84966 7.28899C5.22487 8.44726 5.02675 9.78817 5.28989 11.0776C5.55302 12.3671 6.26069 13.5231 7.28934 14.344C7.29816 14.3491 7.30548 14.3565 7.31056 14.3654C7.31565 14.3742 7.31832 14.3843 7.31832 14.3945C7.31832 14.4047 7.31565 14.4147 7.31056 14.4236C7.30548 14.4324 7.29816 14.4398 7.28934 14.4449C6.56379 14.4222 5.84647 14.2842 5.16434 14.0359C5.13247 14.0359 5.09528 14.0359 5.09528 14.089C5.16966 17.3827 8.39966 18.8702 9.14872 19.1837C9.15935 19.1872 9.1686 19.1939 9.17516 19.203C9.18172 19.2121 9.18525 19.223 9.18525 19.2342C9.18525 19.2453 9.18172 19.2562 9.17516 19.2653C9.1686 19.2744 9.15935 19.2811 9.14872 19.2846C8.47744 19.4309 7.78853 19.4792 7.10341 19.4281C7.09419 19.4277 7.08501 19.4295 7.07664 19.4334C7.06827 19.4373 7.06093 19.4431 7.05523 19.4503C7.04953 19.4576 7.04563 19.4661 7.04384 19.4752C7.04206 19.4842 7.04244 19.4936 7.04497 19.5024C7.71966 22.0418 11.0293 23.1043 11.6243 23.2796C11.6343 23.2817 11.6435 23.2864 11.6511 23.2932C11.6587 23.3 11.6644 23.3086 11.6677 23.3183C11.6709 23.328 11.6715 23.3383 11.6695 23.3483C11.6675 23.3583 11.6629 23.3676 11.6562 23.3752C9.61091 25.2027 5.57872 25.6862 4.74997 25.7712C4.73896 25.7726 4.72859 25.7772 4.72008 25.7844C4.71157 25.7915 4.70528 25.8009 4.70193 25.8115C4.69859 25.8221 4.69833 25.8334 4.70119 25.8442C4.70405 25.8549 4.70992 25.8646 4.71809 25.8721C7.80997 27.9971 15.9062 29.7609 22.09 24.4749C23.9181 22.8817 25.3626 20.8959 26.3156 18.6661C27.2687 16.4362 27.7056 14.0198 27.5937 11.5974C27.5938 11.5886 27.5963 11.5799 27.601 11.5724C27.6057 11.5649 27.6124 11.5589 27.6203 11.5549C28.7308 10.9027 29.6562 9.97734 30.3084 8.86681C30.3084 8.81368 30.3084 8.78181 30.2287 8.79774C29.6909 8.9867 29.1103 9.01804 28.5553 8.88806C28.5553 8.88806 29.4637 7.31556 29.4478 6.53462Z" stroke="white" stroke-width="1.5" stroke-linecap="round"/>
</svg>
